<svg xmlns="http://www.w3.org/2000/svg" width="1222.96" height="277.6" viewBox="0 0 1222.96 277.6">
  <g fill="#0064a9">
    <path d="M119.26 204.99l-.1-.01v.01zm11.17.19l-.1-.01zm9.58.16v.04z"/>
    <path d="M118.88 222.01l9.72.16.06-3.75-5.3-.09.22-13.27-4.32-.07h-.1zm11.16.19l9.68.16.07-3.75-5.26-.09.05-2.93 4.99.08.06-3.75-4.99-.08.05-2.84 5.26.09.06-3.71v-.04l-9.58-.16-.1-.01zm20.62.91c2.84.05 5.36-.93 7.07-3.22 1.55-2.1 1.77-4.21 1.85-6.7l-8.78-.15-.06 3.48 3.62.06c-.22 1.96-1.7 2.93-3.62 2.9-2.91-.05-4.45-2.77-4.4-5.4.04-2.6 1.6-5.35 4.52-5.3 1.79.03 3.05 1.14 3.63 2.77l4.23-1.69c-1.41-3.21-4.09-4.84-7.59-4.89-5.48-.09-9.3 3.48-9.39 9.01-.1 5.34 3.57 9.04 8.92 9.13zm19.65-17.83c-4.9-.08-9.47 3.45-9.56 8.6-.08 5.05 3.19 8.75 7.94 9.41.43.06.85.13 1.31.14 5.46.09 9.48-3.72 9.57-9.23.09-5.14-4.37-8.83-9.26-8.92zm-.24 13.87c-2.64-.04-4.77-2.23-4.72-5.17.04-2.35 2.24-4.45 4.88-4.41 2.64.05 4.78 2.22 4.74 4.57-.05 2.94-2.26 5.05-4.9 5.01zm34.01-33.72h.09zm-22.54 20.61h.11zM222 185.73l-17.83-.3h-.09l-.3 17.92 17.92.3zm-30.95 33.74l-5.31-.09.23-13.27-4.32-.07h-.11l-.28 17.02 9.72.17zm12.14-13.06l-4.83-.08-6.84 16.91 4.7.08 1.23-2.94 6.1.1 1.05 2.98 4.72.08-6.13-17.13zm-4.47 10.6l1.93-5.39h.04l1.72 5.45-3.69-.06zm11.52 6.54v-.1zm17.64-37.77v.08z"/>
    <path d="M210.53 206.53l-.29 16.92v.1l4.43.08.17-10.43h.05l7.92 10.57 4.43.07.64-37.98v-.08l-4.42-.07-.53 31.44h-.05l-7.93-10.54zm19.93.34h.09zm6.27.1l-6.18-.1h-.09l-.29 17.02 6.28.11c4.72.08 8.71-3.57 8.79-8.36.08-4.79-3.76-8.59-8.51-8.67zm-1.08 13.26l-.99-.02.16-9.52 1.04.02c2.85.05 4.83 1.8 4.78 4.85-.07 3.31-2.35 4.71-4.99 4.67z"/>
    <path d="M1212.63 268.13l-3.24 4.21-14.92-12.56s-2.87-2.94-3.19-2.94-3.25.06-3.25.06l-3.69.44-3.44 3.38-3 .75s-3.94.44-4.12.5-5.06 1.63-5.06 1.63l-.19-8-1.25-.5s.06-3.31 0-3.5 2.25-.37 2.25-.37l.94-1.44-.69-2.31-2.31-1.19-.62-2.06s-.56-1.5-.06-2.87c3.13-3.94-.37-7.12-.37-7.12s-12.19-5.62-12.56-5.81-2 .75-2 .75-.37-2.31-.37-2.62-.06-4-.06-4 1.38-1.44 2.5-2.12.63-.37 1.75 0 .94.5 3.44-.25.5-1.06.5-1.06l-1-1.87c-1-1.87-.56-1.31.5-2.37s3.19-2.37 10.13-7.62c6.2-4.69 3.77-2.85 3.18-2.4.37-.27 1.67-1.16 3.51-1.47 2.19-.37 1.63.75 1.63.75l1.56-.69-.06-2.06s.19-.62 1.56-.81.88.13 2.63-.5-.06-.56-.37-1.31 0-.94.5-2.62 1.06-.5 3.31-.87 1.13-.5 1.81-1.94.38-1.62.38-1.62.5-1.06.63-3-.19-.87-.75-2.44-.19-.37-1.94-1.81-1 .5-1.94 1.38-1.37.06-4.87-1.31-.56-.75-1.37-2.12-.87-.75-1.81-1.44-.75-.25-2 1.38-.44.75-1.31 2.81-.25.75-.87 2.19-.69 0-2.69-.19-2 1-2 1-1 .19-1.5-1.31-.87-1.19-1.62-1.75-.94.25-2.44 1.19-1.06.44-1 3.19.38 1.75.38 1.75l-.37 3.25 4.13 4.03.94 1.84-1.37 2.56-7.12 3.94-13.62 4.63s-10 2.69-10.87 7.94 5.69 11.19 6.88 11.25 1.81-.87 1.81-.87l1.5-.44.38 1.19 1.31 1.06v8.56c0 .37 4.38 4.44 4.38 4.75s.06 8.88 0 9.31-1.75 1-1.75 1l.63 4.38v3.69l-1.81-.87-2.69-1.94s-1.25-.94-2.19-2-1.5-2.19-3.31-4.31c-1.81-2.12-3.81-3.06-8.56-3.81s-9.62 6-10.37 7.63-1.75 2.44-1.75 2.44-2 .75-3.56 1.31c-.2.07-.41.12-.63.14-.64-7.33-2.86-30.03-6.31-36.19 3.75-.25 4.25-1.62 4.25-1.62s-4.5-3.62-4-4.5 2.13-.12 2.13-.12l2.13 2.88s5.75.13 6.38-1.12 2.13-8.37 1.63-10.62-.17-3 .1-3.37c.28-.37.6-.45 0-2.29s-3.6-1.09-4.22-2.09-.5-1.5.5-2 2.13-1.87 1.13-2.5-1.62-1.25-.87-2 2.25-.37 1-1.62-2.5-3.12-2.87-4.25.5 0 .5-1.37-1.5-2.12-1.5-3.12.75-5.12.38-6.25-.62-1.25-1.37-1.12-1.12 1.13-1.87.5-1.25.5-.75-.62 1.5-.5 1.38-1.87 0-1.5 0-2.25 0-1 .63-1.75 1.38-1.37 1.5-2.12-.25-4.5-.37-6.12-.37-1.37.13-2.62 1.25-1.75 1.25-2.62-.5-2.12-1.37-2.75-.75-1.25-1.62 0-1.37 2.25-1.37 2.25l-.87-1.37-.5 2.38s.5 1.75.5 2.13c0 .05.02.13.05.21l-.92-.09v3.13l-4.37 4.13v-1.37l-2.62-3-2.12 1.75-3.25 2.5-1.75-.62-.12-3v-3.37l1.5-2 1-2.37-1.75.25-1.62-3-1.37 1.38v1.25s-.12 2.38-.62 2.88 0 3.25 0 3.25-1.01 2.63-1.01 3 .88 3.5 1 4-1.62.25-1.62.25l-1.25-1.75-.75-2.37-.87-2.37-2-2.87.75-2.87-1.5-1.12h-1.75l-.87 1.5 1 1.75 1.63 4.25.75 3.13 2 3.63v3.25l-1.25-1.34-2.5-1.03v-7.62l-1-2.87-1.87-1.37-.62 2 1.88 2v7.13l-1.62.63-1-2.5-2.37-.87-2.37.75-.75 2-1.75.13-.5-3.12 1.13-2.12 1-3.62.88-1.12-.87.25-3.25-1.5-1.25 1.13 1.88 1.13v1.88l-1.25 2.38v3.38l-1 .63-2-2.37h-1s-3.37 1.88-3.62 2.38-1.25 1.88-1.25 1.88 3.13 1.88 3.63 1.75 1.25.75 1.25.75-.62 1.5-1 1.75-.96-1.25-.96-1.25l-3.54.5s3.25 4 3.5 4.38-.62 1.25-.87 1.63-.62 1.63-.75 1.75 0 2.63 0 3l.63 1.75-.62 1.5 1.38 1.63v1.38h-2.25l-2 1.5s-1.45-1.39-7.94 4.61v.01a88.838 88.838 0 00-4.43 4.45v.01c-3.63 3.89-8.28 9.39-14.23 17.19l-.06-47.64 3.38-6.06s-.25-14.42-.44-20.92c-2.07-.72-4.11-1.33-6.12-1.87v6.37h-1.5v-6.75c-1.81-.45-3.61-.83-5.37-1.15v7.15h-1.25v-7.35c-1.99-.32-3.95-.57-5.87-.75v7.19l-2-.53v-7.28c-4.37-.33-8.02.06-11.74.47l-.62-23.96h-.83s.83 1.83-.33 2.33c-1.17.5-1.17.17-2.67 1.33s-1.33 1.5-2.83 2.5-.5 1.33-2.83 1.83-2.17.83-3 1.5c-.83.67-1.17 2.17 0 1.67s.33-1.33 1.17-.5c.83.83-1.17 3.67-1.17 3.67s.67-.17 5.5-3.17 6-3.17 6-3.17l.67 4.5v11.56l-1.37.15v6.46h-1.99V143c-2.14.27-4.19.6-6.13.98v7.17h-2.57v-6.62c-2.21.51-4.26 1.07-6.14 1.65v7.01h-3.61v-5.8c-5.94 2.14-9.36 4.14-9.36 4.14l-.44 16.05 2.88 4.56s-.06 14.44 0 14.63-5.87 3.13-5.87 3.13l-.37 1.81v3.88l-2.12.13s-.31-1.5-.44-1.75 2.19-3.25 2.19-3.25.13-11.7.19-16.77c-1.66-.51-3.29-.92-4.89-1.27v5.86h-2.25v-6.3c-1.36-.24-2.7-.42-4-.56v5.73h-2.25v-5.91c-2.53-.16-4.93-.14-7.17-.01l-.85-21.62-2.92 2.17-2.33 2.83s-1 1.67-1.67 2.67c-.67 1 .17 1.17-1.5 2.17s-3.17 2.91-1.67 2.2c1.5-.7 2.67-1.54 2.67-1.54l2.53-2.83s.31-2.17 2.14-2.33l1.83-.17.58 16.54c-.21.02-.42.03-.62.05v5.79h-2.25v-5.54c-1.93.25-3.68.57-5.24.92v6.38h-2.25v-5.82c-3.52.94-5.55 1.87-5.55 1.87l.29 4.76-2.25 1.81v7.31c-.27-.07-2.43-.3-5.37-.58v5.03h-2.25v-5.25c-1.9-.18-3.97-.38-6-.57v5.82h-2.25v-6.03c-2.58-.25-4.92-.48-6.5-.64v5.55h-2.25v-5.92c-.81-.29-4.07-.96-4.07-.96l-.44-24.12 3.13-4.06-.04-29.13c-2.65-.88-5.21-1.58-7.7-2.14v7.14h-2.25v-7.61c-2.24-.43-4.41-.74-6.5-.95V132h-2.25v-7.5c-2.01-.13-3.95-.17-5.8-.13V96.78s.67-2.67 0-2.33c-.67.33-1.5 2.33-2.17 2.67-.67.33-2.83 1-2.83 1s-.67 1.67-2 3.5-.83 2-2.83 2.33-2 0-3.17 1.33-1.5 2.33-1.33 3.33 0 1 1.5-.67 1.33-1.83 3-2.17c1.67-.33 2.83.17 4-.67 1.17-.83 1.33-1.33 2.67-1.83 1.33-.5 2.33.17 2.33.17v20.47c-2.54.08-4.92.3-7.12.62v7.49h-2.25v-7.13c-2.12.39-4.03.85-5.75 1.35v7.53h-2.25v-6.83c-4.92 1.64-7.63 3.33-7.63 3.33l.38 16.7s-1.73.19-2.29.06c-.63-.15-.15-2.14-1.33-2.83-4.53-1.93-9.02-3.16-13.33-3.92v5h-1.92v-5.31c-.5-.07-1-.13-1.5-.19v-25l.83-2.17s-1.17 0-1.5.83c-.33.83-1.17 2.67-1.17 2.67s-.5-.33-1.83 0-2.33.83-3.33 1c-1 .17-2.17-.17-2.5.33s-.33 2-.33 2l-2.17 3.33c1.17-.17 1.83-.83 3.33-1.17 1.5-.33 3.17 0 3.17 0l2-2.5h2v20.51a60.46 60.46 0 00-4.75-.29v5.95h-1.92v-5.97c-1.72.01-3.37.1-4.96.23l-.85-19.09s2.17-1.83 1-2.17c-1.17-.33-1.83 0-1.83 0l-.33 2.17s-1.67 1.83-2.67 3.33-.67 2.17-1.67 2.83c-1 .67-1.5 1-2.67 1.67-1.17.67-2.5 2.83-2.5 2.83v3.17s-1.5 2.83-.83 2.5c.67-.33 3.67-1.67 4.17-2.5.5-.83 1.5 0 1.5 0s1.33-1.5 1.83-3.5 2.83-3.5 2.83-3.5l.53 12.38c-.1.01-.2.01-.3.02v6.18h-1.92v-5.96c-3.45.45-6.5 1.09-9 1.75v4.21h-1.92v-3.68c-3.48 1.02-5.5 1.92-5.5 1.92l.5 29.31 3.69 4.13-.69 14.81-46.94-.94s-.06-2.19-.19-3.5.63-2 1.81-3.56 2.25-2.25 2.56-3.75-.5-17.25-.5-17.25v-4.19l-.44-2.44s-.56-.87-1.56-1.44-1.31-.75-1.75-1.06-2.19-1.19-4.31-1.62-2.12-.19-2.12 0v6.62s-.56 1.19-.87 1.5-1.31.19-1.31.19l-.62-1v-2.75c0-.19.06-2.75-.31-5.56a19.64 19.64 0 00-4.35-1.27v-33.84s-3.17 2.33-6.72 4.17c-3.56 1.83-2.61 3.83-4.28 5.83-1.67 2-2.83 3.83-2.33 3.83s3-2.33 3.83-1.33c.83 1 1.33 1 2-.17.67-1.17 6.17-5.17 6.17-5.17v26.48c-4.77-.55-8.81.48-9.62.85-1.12.5-.31.5-.44.94s0 1.31 0 1.31v5.94s-.31.69-.81.69-.62-.81-.62-.81v-2.81s-.25-3.31-.37-4 .19-1-3.31-.37-6.87 2.56-6.87 2.56l-.37 25.13s-.25 1.63.19 2.63.63 1.44.63 1.44l.31 2.31 1.56 2.63 2.44 4.06.31 32.19s-.06 1.13-.37 2.44-.75.81-1.56 1.69-1.69.44-1.69.44-1.25-.56-2.31-1.42-.62-.39-2.75-.89-1.12.06-2.44.25-1.87.13-1.87.13l-.94-.44s0-1 .25-2.25.19-2.06.19-2.06l-.5-2 1.94-.12 2.44-1 1.25-1.75s-1.19-.87-1.62-.81-5.37.31-5.37.31-.25-1.06-.37-1.25-.56-3.12-.56-3.12l-.81-3.44-1.25-4.25s-2-3.94-4.87-10.5-6.75-7.31-6.75-7.31l-5.62-.69s-6.19-.12-6.5-.56-.31-1.37-.69-2.19-.87-1.94-1.06-2.94.63-2.44 1.13-3.37 1.13-4.19 1-9.56c-.94-4.75-9.37-14.12-9.37-14.12s-.44-.75-.5-1.56.25-.87.44-2.56-.12-2.56-.12-2.56-.31-1.56.06-3.37.13-.94.31-1.75 0-1.44-.56-2.06-.5-.5-.94-1.75 0-1.75 0-3.56-.81-1.69-1.62-2.56-1.87-1.19-2.69-1.19-1.37.94-2.69 2.88c.56 1.56.38 4.81.44 5.19s-1.37 0-1.37 0l.19 3.19h1.44v2.06l-1.19.5.25 2.88.94.94v2.69l-2.31-.75s-.87-.12-2.37.44-.56.25-2.44 2.13-1.81 1.69-3.25 3.25 0 1.81 0 1.81-.25 1.13-1.19 2.25-.25.88-.25 2.13.13.56-.19 3.06-.37 1-1.06 3.25 0 2.25 0 4.25.25 1.5.38 3.5.13 1.63.56 2.63 1.75 2.69 2.19 3.69-.56 1.63-.56 1.63-1 .44-2.37 1.63-.56.63-1.75 1.75-.94.81-3 1.69-1.31.44-3.44 1.25-2.31.69-5.25 2.75-2.62 2.75-2.62 2.75-1.31 2.31-2.62 5.63-1.44 3-1.69 5.06-2.6 9.5-2.6 9.5v3.25l-1.03 3.31-1.31 4.76-.56 2.86-.44 2.38.13 3.5.38 3.06.52 1.54-6.09 2.47-.87-1.25v-4.62c0-.87-.87-3.62-1.87-4s-3.94.22-5.5 1.75c-1.01 1-1.19 1.95 1.13 5.25 1.54 2.18 3.5 3.5 3.5 3.5l-13.98 6.24c-.41-.17-.79-.33-.96-.38-.44-.12-.56-3.69-.56-3.69l-2.37-.12V116.75c17.78-.93 20-7.14 20-7.14s2.25-11.5 3.25-20.25c.78-6.8-15.83-8.77-23.25-9.31V46.28c2.57-1.51 5.04-3.17 5.04-3.17s-.75-8.5-1.25-12c-.31-2.17-3.87-2.61-6.53-2.63V0s-3.75.61-3.75 1.36v27.13c-2.68-.07-7.15.18-7.5 2.62-.5 3.5-1.25 12-1.25 12s1.84 1.24 4 2.55l-.2 34.57c-8.06.75-21.75 2.93-21.05 9.13 1 8.75 3.25 20.25 3.25 20.25s2.02 5.63 17.59 6.97l-.79 135.34-.55.24-.87-.87-1-1.62-.94.25-1 2.19-.94-1.06s-1.31-1.94-1.5-1.94-.62 2.38-1.5 2.5-.81-.19-.81-.19l-1.31-3.06v2s-1.69-2.06-1.81-2.25-.31-1.31-.31-1.69-1.06-1.06-1.06-1.06l-2.06-.06-1.06.75v1.19l-.75.81-.31 4.94-2 .13.25 2.06-1.75 1.44s.25 4.44-.25 4.63-1 1-1 1-1.19 0-1.37-.12.25-33.87.25-33.87l-1.06-1 .56-24.5 3.06-2.12.25-4.69.81-1.37 2.63-.69.69-2.37s-3-.31-3.44-.31-.5-.75-.5-.75l.88-1.5 3.06-.94v-1.62h-3.06l-1-1.62-3.75-.75-.5-1.56s-1.87-.19-1.69.06-.44 1.44-1.31 1.38-2.56.5-2.56.5l-.25 1-4.31.56-.31 1.69 3.38.81.5 2.56-3.69.5.06 2.13 2.69.63.06 2.81-2.44.44.25 1.75s2.31.31 2.56.44.19.63.75 1.06.44.63 1.56 1.25 3.06.63 3.06.63l-.31 24.75-.62 1v17.94s-3.25.38-3.44-.37 0-1.25-.25-2.37.44-1.25 1.06-1.56.56-.87.56-.87l.38-4.75-.44-1.81s-.37-.69-1-1.75-1.37 1.25-1.37 1.25l-1.44.5s-.94-.37-3-1.69-1.75 1.31-1.75 1.31-1.12.19-1.94-.25-.81-2.31-.81-2.31l.56-2.37 1-2.94-.44-1.81-1.31-.62s-.94-.5-1.06-1.25.06-1.81-.37-3.19-.87-.62-2.31-2.37.06-1 .25-2.44-.87-1.19-1-2.31-.25-1.06-1.06-2.12-1.25-.5-2.12-.62-1.5.5-1.5.5l-2.56 1.63-.78 1.38s-.54 1.44-.85 2.31-.12.81-.19 1.94l-.81 2.94c-.81 2.94 0 .44.88 1.13s.81.56.94 1.56 0 0-1.62.56-2 1.19-2 1.19l-1.06 1.5v1.25l-12.33.7s-.21 10.56-.13 14.7c-.06-.01-.1-.02-.1-.02s-1.37 1.06-2.06 1.44-1.28 2.75-1.28 2.75v13.25l-10.16-.69.25-21.31-1.44-1.37.13-42.5 1.06-1.5s3.19.13 3.44.13.69-.5.69-1.25.13-1.25.06-2.37.13-.5 1.19-.62 1.13.25 2.94.13 1.78-.81 1.78-.81.16-1.5 0-2.25-.96-.5-1.84-.62-2.25.31-3.25.19-.62-.81-.75-1.62.06-1.25.19-1.94 1.81-.31 1.81-.31l2.44-.06 1.38-1.25s.06-1.37 0-2.19-.5-.75-2.06-.62-3.31-.37-3.56-.44-2-1.87-2-1.87l-3.19.06s.06-1.5 0-2.75c-.94-.25-3.87-.12-3.87-.12l.44 2.31-1.75-.19c-5.19 0-5.5 2.63-5.5 2.63l.06 8.38-2.37.19s-.37 1.69 0 2.44 2.44.88 2.44 1.06-.06 3.75-.06 3.94-1.37.19-1.56.5.06 2.31.06 2.31 1.63.81 1.81.81.19 2 .19 2 1.44.19 4.38.38c.38 2.69 1.13 2.25 1.13 2.25l-.62 70.56h-10.75l-.25-.81 1.88-.56 1.69-.5 1.38-.62.38-.87-1.06-.37s-.25-.75-1.81-2.25-2.19-1.44-2.31-1.62-.5-1.12-.75-2.12c-.81-.37-2.25-.75-2.25-.75s-.44-.81-.31-1.56 1.57-.75 1.57-.75-.07-.94-.01-1.94-.19-1.06-.77-1.44-.97-.62-1.23-1.06.63-1.31.63-1.31.25-2 .25-2.94-2-1.81-2-1.81.44-4.56.44-5.25-2.56-2.56-2.56-2.56-.12-2 0-2.81 2.69.31 3.75 0 .63-4.94.69-5.12-.94-3.19-.94-3.19-3.87.06-4.5.63-.25 2.25-.25 2.25l-1.12.06-.12-7.56s2.56-.69 2.81-.75.44-.81.44-1-.06-.87-.06-1.19.19-.56.75-1.5c.13-2.19.19-2.81.5-3.37s-3.44-3-3.94-3.31-.5-1.31-.69-1.75-3.37-.25-4.19-.19-.69 1-.81 1.75-3.37 1.56-4.12 2.37.13 1.5.13 1.5v3.75c-.19 2.13 2.5 3.13 2.5 3.13v10.69l-5.06-.31s-.31-1.5-.37-1.69.13-.94 1.13-1.5c-1.81-3.19-4.25-3.37-4.25-3.37l-.62-.75s.31-1.06.63-1.81c-1.56-.62-4.06 0-4.06 0s.44 1.13.38 2.33c-3.69.27-4.5 4.05-4.5 4.05s.81.56.83.75c.01.19 0 1.44 0 1.44l-3.2.19s-1.12-1.37-1.12-1.56.69-2.06.69-2.06-1.12-1.56-1.25-1.87.63-.92.63-.92l.13-9.64 4 .06s.31-.25 0-1.44c-5.69-6.87-17.44-4.87-17.44-4.87l-12.06-.19s-11.69.19-11.87.19-2.37.88-2.37.88-3.25.13-24 .06-79.12 3.31-79.12 3.31l-.44 1 1.13 1.56v4.26l-.44 1.29v3.95l-1.37.38.38 2.44-.37 1.69-1.62-.37s-3.06-.44-5.56-.06-6 5.63-6.56 6.31-1.94.25-1.94.25v-3.56l-1.81-.12v-1.44l.06-2.94-.06-2.98.69-2.33 1.06-1.19s.13-6.24 0-6.49-1.25 0-1.25 0-.69-.5-.94-.89-2.81 0-2.81 0v-5.45l-5.5-12.6-.19-2.94-1-.81s.5-12.44.56-12.94.75-.94.88-1.31-.94-1.81-.94-1.81l-.37-5.56s-1.37-.31-2.12-.06-1.19.94-1.19.94-12.69-.87-14.5-1.12c-1.81-.25-1.87.69-1.31 1.13s8.81 2.19 8.81 2.19-7.75.56-8.62.75-.19 1.13.25 1.63 15.38 1.44 15.38 1.44l.25 1.06.94 1.19-.37 12.38-.5.88v2.63l-5.56 12.04v5.83s-2.62.38-3.06.55-1.75 2.08-1.75 2.08v3s-1.31-.69-1.5-.69-.87-.81-1.19-1.81.31-.12 1.75-1.19.19-1.31-.44-2.75-1.69-.94-2.87-.28c-1.19.66-.44.9-.62 2.15s-.5.75-1.5 2.06-.94 1.31-1.5 2.5.19 2.13.44 2.75.63 2.56-.44 2.56-1.5 1.13-1.5 1.13l-2.87-.07.04-1.75-4.47-.1-.04 1.75-3.46-.08.04-1.74-4.47-.1-.04 1.74-2.62-.06.04-1.74-4.47-.1-.04 1.74-3.52-.08.04-1.73-4.47-.1-.04 1.73-3.46-.08.04-1.73-4.47-.1-.04 1.73-2.62-.06.04-1.72-4.47-.1-.04 1.72-4.2-.1.04-1.88-4.47-.1-.04 1.88-3.46-.08.04-1.88-4.47-.1-.04 1.87-2.62-.06.04-1.87-4.47-.1-.04 1.87-3.52-.08.04-1.87-4.47-.1-.04 1.86-3.46-.08.04-1.86-4.47-.1-.04 1.86-2.62-.06.04-1.86-4.47-.1-.04 1.85-4.19-.1.04-1.85-4.47-.1-.04 1.85-3.46-.08.04-1.85-4.47-.1-.04 1.84-2.62-.06.04-1.84-4.47-.1-.04 1.84-3.52-.08.04-1.84-4.47-.1-.04 1.84-3.46-.08.04-1.83-4.47-.1-.04 1.83-2.62-.06.04-1.83-4.47-.1-.04 1.83-3.47-.08v-1.5l-5.37-.34v1.52l-3 .06v-1.59l-4.31.27s.19 1.13-.12 1.25-1.06 0-1.06-.37.13-4.36.13-4.36h2.13v-7.27s-1.25.13-2.37-1.34c-1.12-1.46-4.75-3.04-4.75-3.04v-3.41l-7.37-19.46s.38-13.87.5-14.87 1.38-.75 1.25-2-.62-2-.62-2 .13-3.37 0-4.62-1.37-2-2.25-2.01c-.87-.01-1.69 1.51-1.69 1.51s-21.31-1.62-22.18-1.5 0 1.38 0 1.38l10.38 2.75h-10c-.88 0-.75 1.75-.75 1.75s18.75 1.75 21 1.75c.13 1.88 1.38 2.63 1.5 2.75s0 15.12 0 15.12-7.37 13.88-7.75 15-1.5 1-1.93.75c-.43-.25-.7-1-.2-1.62s0-2.12-.87-2.87-2.25 0-2.87.88 0 2.38 0 2.38-1.37 2.13-1.5 3.44c-.12 1.31.25.81-.25 2.39s.88 2.42.88 2.42l-1.25 2.23v7.02l2.13 1.44v10.94h-3v14.63h-4.12l-1.12 2.38h-2.5v9.25c-.45.1-1.15.27-1.53.5-.35.22.56 1.33.24 1.62-.15.13-.67.06-1.2-.01-.55-.07-1.1-.15-1.25 0-.29.28 1.24 1.5.95 1.78-.15.15-.85-.02-1.56-.19-.68-.17-1.37-.33-1.52-.2-.33.28 2.91 3.35 2.54 3.57-.2.12-1.15-.58-2.09-1.28-.91-.67-1.81-1.34-2.03-1.29-.46.11-.59 2.15-1.11 2.13-.22-.01-.57.11-.92.23-.4.14-.81.27-1.08.22-.47-.09.68-3.85.2-3.97-.23-.06-.84.62-1.45 1.29-.61.68-1.22 1.35-1.45 1.29-.25-.07-.51-.05-.77-.04-.23.02-.46.03-.69-.02-.5-.11-.51-1.18-.98-1.22-.53-.05-1.28-1.18-1.74-1.1-.54.1-.27-.61-.78-.69-.22-.03-.36-.01-.49.01-.17.03-.33.06-.61-.04-.23-.09-.97.41-1.72.92-.76.51-1.52 1.02-1.75.91-.45-.22.98-2.41.54-2.62-.24-.12-.67-.02-1.09.06-.38.08-.75.16-.97.09-.3-.1-.6.01-.89.11-.21.08-.43.15-.64.15-.47 0-.15.64-.6.8-.2.07-1.08-.54-1.98-1.16-.92-.63-1.84-1.26-2.04-1.15-.36.21 3.98 4.11 3.63 4.35-.17.12-.71-.02-1.26-.17-.54-.15-1.07-.29-1.24-.17-.18.13-.73 0-1.26-.14-.51-.13-1-.26-1.17-.16-.42.25.19 2.45-.2 2.53-.46.1-2.47-4.54-2.91-4.79-.2.34.3 3.41.07 3.69-.26.32 1.5 1.7 1.21 1.97-.15.14-.65.11-1.13.08-.47-.03-.94-.06-1.1.07-.32.25.11 1-.23 1.26-.16.12-1.03-.2-1.91-.52-.9-.33-1.81-.66-1.97-.51-.33.28 1.73 3.27 1.24 3.4-.23.06-.71-.22-1.19-.5-.45-.26-.91-.53-1.16-.51-.26.02-.55-.02-.85-.07-.26-.04-.51-.08-.75-.07-.25 0-.51-.09-.77-.19s-.52-.2-.77-.19c-.53.02-.57 1.51-1.04 1.58-.25.04-.81-.46-1.36-.96-.58-.53-1.16-1.06-1.36-.95-.21.12-.78.01-1.34-.09-.58-.1-1.16-.21-1.35-.08-.38.26 4.12 3.9 3.77 4.18-.18.14-1.15-.25-2.13-.64-.97-.39-1.94-.77-2.12-.64-.36.27 1.77 2.57 1.37 2.81-.2.12-1.15-.51-2.1-1.14-.94-.62-1.88-1.24-2.11-1.14-.42.17 1 2.03.76 2.4-.2.31-2.72.14-2.85.53-.08.23 1.42.69 2.45 1.09H0v4.33h1222.96v-4.33l-10.33-5.57zM75.47 219.85c1-2.74 2.5-6.18 7.5-6.46 0 0 4.33 2.85 4.5 9.12.17 6.27 0 7.44 0 7.44h-4.5l-.67-3.46 1.5-1.7-.33-3 .5-1.92-1.67-1.74-1.33.67v3l-2 1.85v6.32h-3.5c0-.03-1-7.37 0-10.12zm12.07 43.26v-7.17l-14.41-1.5s1.83-5.5 9.92-5.17c8.08.33 9.92 13.83 9.92 13.83h-5.43zm170.67-17.5l-3.25.5.5 4.5-5-1.25s-4.5.75-12.82 2.5c-25.32-10.5-30.93 7.75-30.93 7.75l-81.5-2.25s-.75-4.25-1.45-5.75-20.55-1.75-20.55-1.75-.75-2.25-1-4.25-5.25-2.5-5.25-2.5v-7l161.25 3v6.5zm18.75-12.5h-8.17v-9.03s1-3.98 3.83-4.22c1.39-.12 2.83 3.36 3 4.22.17.87 1.33 2.42 1.33 2.42v6.61zm30.57-13c-.19.06-2 .44-2 .44v-1.75l2-.44s.18 1.69 0 1.75zm8.12.81h-1.56v-1.36l1.56-.27v1.63zm3.25 1.13l-.56-.56v-2.44l.56.25v2.75zm2.31-1.72l-.94-.72.47-.81.47.5v1.03zm3.88 2.82l-1.56.53v-4.06l1.56-.31c.06.43 0 3.84 0 3.84zm3.31-2.41l-1.19-.41v-1.28l1.19.25v1.44zm6.19 6.14l-2.5-.51v-1.87l.81-1-1.12-1.44-1.31-.69v-2.06h4.13c-.01.05-.01 7.57-.01 7.57zm2.94 0h-1.12v-7.58h1.13v7.58zm2.69-6.14l-1.81.63s.06-1.94 0-2.06h1.81v1.43zm8.25 5l-4.25-.5v-6.62l4.25-.25v7.37zm3.5 4.56h-1.5v-11.94h1.5v11.94zm3.5-3.88s-2 2.31-2 2.13-.31-10.81-.31-10.81h2.31v8.68zm6.27-1.56l-2.15.88-1.75 1.14v-8.51l4-.62.13.63c-.03.12-.04.34-.05.62-.02.91.05 2.38.05 2.38s-1.25 2-.87 1.63 1.38.05 1.38.05l-.74 1.8zm11.73-6.5s-2.87.25-3.25.63 0 1.75 0 1.75l-.17 2.25s-1.96-.12-1.96 0v-5.25l1.5-1.5 3.88.75v1.37zm10 1.38l-1.62.63V222l.81 1.75-2.06.75v-3.12l-2.12-1.62h-2.62v-2.75h7.63v2.73zm3.87-2v2s-1.75-.62-1.75-1v-1.75h1.75v.75zm7.13 1.37l-1.75 1.13v2.38l-1 1.25-2.37 1.88V217h5.13c-.01.74-.01 2.11-.01 2.11zm12.25 13.63h-4s-1.12-2.62-1.87-2.87 0-4.12 0-4.12l-3.62-.94v-5.69s-.87-.12-1-1.37.5-1.5.5-1.5l10 .63v15.86zm12.75-15.5s-3.75.38-3.5 4.13c.5 2.38-.01 3.25-.01 3.25l-2.86 1.13-2 3.62-1.25 3.38h-1v-16.5h10.63v.99zm9 18c-.87 0-3.87-1-3.87-1s-.75-2.37-2-3.12c-.25-4.87 0-14.87 0-14.87h5.88c-.01-.01.86 18.99-.01 18.99zm6.25-1h-4.25v-18l4.25.63v17.37zm7.5-13v8.12l-1.81.63v2.75h-1.81v-15h3.63l-1 1.75.99 1.75zm81.81 8.36s-.06.94-.5 2.19-.25.5-1 1.13-.62.38-1.44 1.31-.31 1.06.25 1.94.63.5 1.31 1.38 0 .44-.31 1.13-.75.81-1.25 1.69-1.37.63-2.19 1.38-1.25.88-2.44 1.38c-.41.17-1.07.19-1.77.14-.12-4.14-.23-13.12-.23-13.12l9.61-.76-.04.21zm100.69 20.43c-.06.31-1.62 1.31-1.81 1.31s-1.31-.31-1.31-.31-1.79.81-1.84 1.06-1.22 1.56-1.35 1.75-1.25.13-1.25.13l-2.19-.19s-.37.81-.56.88-1.75.63-1.75.63l-1.44-1-1.75-.56s-1.12 1-1.12 1.19-1.75.63-2.44.81-2.06-.5-2.06-.5l-1.12-1.46c3.16-1.19 11.43-4.27 14.7-5.28 2.3-.7 5.04-2.12 6.99-3.23l.12.34s.63.63.81.88-.62 1.63-.62 1.63.05 1.61-.01 1.92zm223.75-62.79v-19l3.38-3.25.88 23.38-4.26-1.13zm257.07-15.66l4.63-4.34-.57 2.88-2.25 2.5-1.75-.25c-.01-.01-.15-.36-.06-.79zm-25.2 44.78h3.88s3.38 3 3.75 2.88 3.75.88 3.75.88l4.63.25.75-2.12 3 .38 3.63 9.38 1.79 6.88v2.25l-24.17-1.25c0-.37-4.12-17.87-4.12-17.87l3.11-1.66zm-21.98-19.73l-.52 2.36v1.75l-5.31-.86c2.42-2.13 4.48-3.43 5.83-3.25zm-7.51 4.81l7 .8v3.75l-9.83-1.66c.96-1.03 1.91-2.01 2.83-2.89zm-4.46 4.64l10.38 1.13c-.87.99-2.22 2.52-3.82 4.33l-10.39-1.1c1.27-1.49 2.56-2.96 3.83-4.36zm-4.78 5.47l10.06 1.43c-.96 1.08-1.97 2.22-3 3.39l-10.26-1c1.03-1.25 2.11-2.53 3.2-3.82zm-8.02 12.17c.04-.73-.44-1.27-.86-1.6 1.36-1.56 3.02-3.57 4.85-5.76l9.94 1.31c-2.64 2.96-5.31 5.94-7.36 8.19-2.22-.35-6.62-1.16-6.57-2.14zm44 25.64c-.04.75-.04 1.42-.01 2.04-.3-.11-.49-.17-.49-.17l-.81-.37s-2.75-.19-5.44.25-4.56 4.56-4.69 4.88c-.12.31-.5.13-3.12-1.81-.56-14.06-10.69-14.94-13.62-16.19.23-7.65-6.96-11.43-7.9-11.89 2.67-2.89 12.1-12.73 16.84-17.89l.12.55s1.13.88 1.94.88 3.69.88 3.69.88v2l-.75 1.5-.5 1.25 1.25 1.5v2.38l.75 1.13 3.25.63v1.88l1.13 2.13h5.88c-.02-.06 2.73 19.19 2.48 24.44zm28.31 13.99c-1.31.75-3.81.63-5.62.06s-4.62-2.94-7.37-2.81-4.19 2.19-4.19 2.19l-4.44-1.37s-.56-.81-.56-1.12c.03-1.92-.44-3.45-1.13-4.68h.01l-1.25-14.87 24.88.38s1.75 8.38 1.75 11.25c0 1.99.18 6.44.37 9.28-1.49.41-1.23.99-2.45 1.69z"/>
  </g>
</svg>