<svg width="612" height="213" viewBox="0 0 612 213" fill="none" xmlns="http://www.w3.org/2000/svg">
<g clip-path="url(#clip0_36_398)">
<path d="M59.6789 157.287L59.6289 157.279V157.287H59.6789ZM65.2687 157.433L65.2187 157.425L65.2687 157.433ZM70.0628 157.556V157.586V157.556Z" fill="#676767"/>
<path d="M59.4922 170.346L64.3563 170.469L64.3863 167.592L61.7341 167.523L61.8442 157.341L59.6824 157.287H59.6323L59.4922 170.346ZM65.0769 170.492L69.9211 170.615L69.9561 167.738L67.3238 167.668L67.3489 165.42L69.846 165.482L69.876 162.604L67.3789 162.543L67.4039 160.364L70.0361 160.433L70.0662 157.586V157.556L65.2721 157.433L65.2221 157.425L65.0769 170.492ZM75.3957 171.19C76.8169 171.229 78.078 170.477 78.9337 168.72C79.7094 167.108 79.8195 165.489 79.8595 163.579L75.4658 163.464L75.4357 166.134L77.2473 166.18C77.1372 167.684 76.3966 168.428 75.4357 168.405C73.9795 168.367 73.2088 166.28 73.2339 164.262C73.2539 162.267 74.0345 160.157 75.4958 160.195C76.3915 160.218 77.0221 161.07 77.3123 162.32L79.4291 161.024C78.7235 158.561 77.3824 157.31 75.6309 157.272C72.8886 157.203 70.977 159.942 70.9319 164.185C70.8819 168.282 72.7184 171.121 75.3957 171.19ZM85.2291 157.51C82.777 157.448 80.49 160.157 80.445 164.108C80.405 167.983 82.0414 170.822 84.4184 171.328C84.6336 171.374 84.8437 171.428 85.0739 171.436C87.8062 171.505 89.818 168.582 89.863 164.354C89.908 160.41 87.6761 157.579 85.2291 157.51ZM85.109 168.152C83.7878 168.121 82.7219 166.441 82.747 164.185C82.767 162.382 83.8679 160.771 85.189 160.801C86.5101 160.84 87.5811 162.505 87.561 164.308C87.536 166.564 86.4301 168.183 85.109 168.152ZM102.128 142.279H102.173H102.128ZM90.8488 158.093H90.9039H90.8488ZM111.096 142.509L102.173 142.279H102.128L101.978 156.029L110.946 156.259L111.096 142.509ZM95.6079 168.397L92.9506 168.328L93.0657 158.146L90.9039 158.093H90.8488L90.7087 171.152L95.5728 171.282L95.6079 168.397ZM101.683 158.377L99.266 158.315L95.8431 171.29L98.1951 171.351L98.8106 169.096L101.863 169.172L102.389 171.459L104.751 171.52L101.683 158.377ZM99.4461 166.51L100.412 162.374H100.432L101.293 166.556L99.4461 166.51ZM105.211 171.528V171.451V171.528ZM114.039 142.547V142.609V142.547Z" fill="#676767"/>
<path d="M105.356 158.469L105.211 171.451V171.528L107.428 171.589L107.513 163.586H107.538L111.501 171.697L113.718 171.75L114.038 142.609V142.547L111.827 142.494L111.561 166.617H111.536L107.568 158.53L105.356 158.469ZM115.33 158.73H115.375H115.33ZM118.467 158.806L115.375 158.73H115.33L115.184 171.789L118.327 171.873C120.689 171.935 122.686 169.134 122.726 165.459C122.766 161.783 120.844 158.868 118.467 158.806ZM117.927 168.981L117.431 168.965L117.511 161.661L118.032 161.676C119.458 161.714 120.449 163.057 120.424 165.397C120.389 167.937 119.248 169.011 117.927 168.981Z" fill="#676767"/>
<path d="M606.831 205.734L605.209 208.964L597.743 199.327C597.743 199.327 596.307 197.071 596.147 197.071C595.986 197.071 594.52 197.117 594.52 197.117L592.674 197.455L590.952 200.048L589.451 200.624C589.451 200.624 587.479 200.961 587.389 201.007C587.299 201.053 584.857 202.258 584.857 202.258L584.762 196.12L584.136 195.736C584.136 195.736 584.166 193.196 584.136 193.05C584.106 192.905 585.262 192.767 585.262 192.767L585.733 191.662L585.387 189.889L584.231 188.976L583.921 187.395C583.921 187.395 583.641 186.245 583.891 185.193C585.458 182.17 583.706 179.73 583.706 179.73C583.706 179.73 577.606 175.418 577.421 175.272C577.235 175.126 576.42 175.848 576.42 175.848C576.42 175.848 576.235 174.075 576.235 173.837C576.235 173.6 576.205 170.768 576.205 170.768C576.205 170.768 576.895 169.663 577.456 169.142C578.016 168.62 577.771 168.858 578.331 169.142C578.892 169.426 578.802 169.525 580.053 168.95C581.304 168.374 580.303 168.136 580.303 168.136L579.803 166.702C579.302 165.267 579.522 165.696 580.053 164.883C580.583 164.07 581.649 163.065 585.122 159.036C588.225 155.438 587.009 156.85 586.714 157.195C586.899 156.988 587.549 156.305 588.47 156.067C589.566 155.783 589.286 156.642 589.286 156.642L590.066 156.113L590.036 154.532C590.036 154.532 590.131 154.057 590.817 153.911C591.503 153.765 591.257 154.011 592.133 153.527C593.009 153.044 592.103 153.098 591.948 152.522C591.793 151.947 591.948 151.801 592.198 150.512C592.448 149.223 592.729 150.128 593.855 149.844C594.981 149.56 594.42 149.461 594.76 148.356C595.101 147.251 594.951 147.113 594.951 147.113C594.951 147.113 595.201 146.299 595.266 144.811C595.331 143.322 595.171 144.143 594.891 142.939C594.61 141.734 594.795 142.655 593.92 141.55C593.044 140.445 593.419 141.933 592.949 142.609C592.478 143.284 592.263 142.655 590.512 141.604C588.76 140.552 590.232 141.028 589.826 139.977C589.421 138.926 589.391 139.401 588.92 138.872C588.45 138.343 588.545 138.68 587.92 139.931C587.294 141.182 587.699 140.506 587.264 142.087C586.829 143.668 587.139 142.662 586.829 143.767C586.518 144.872 586.483 143.767 585.482 143.622C584.482 143.476 584.482 144.389 584.482 144.389C584.482 144.389 583.981 144.535 583.731 143.384C583.481 142.233 583.296 142.471 582.92 142.041C582.545 141.611 582.45 142.233 581.699 142.954C580.949 143.675 581.169 143.292 581.199 145.402C581.229 147.512 581.389 146.744 581.389 146.744L581.204 149.238L583.271 152.33L583.741 153.742L583.055 155.706L579.492 158.729L572.677 162.282C572.677 162.282 567.672 164.346 567.237 168.374C566.802 172.403 570.084 176.96 570.68 177.006C571.275 177.052 571.586 176.339 571.586 176.339L572.336 176.001L572.526 176.914L573.182 177.728V184.296C573.182 184.58 575.374 187.702 575.374 187.94C575.374 188.178 575.404 194.754 575.374 195.084C575.344 195.414 574.498 195.851 574.498 195.851L574.813 199.212V202.043L573.908 201.376L572.562 199.887C572.562 199.887 571.936 199.166 571.466 198.352C570.995 197.539 570.715 196.672 569.809 195.045C568.903 193.419 567.903 192.697 565.526 192.122C563.148 191.547 560.711 196.726 560.336 197.976C559.961 199.227 559.46 199.849 559.46 199.849C559.46 199.849 558.46 200.424 557.679 200.854C557.579 200.907 557.474 200.946 557.364 200.961C557.043 195.337 555.932 177.919 554.206 173.193C556.083 173.001 556.333 171.95 556.333 171.95C556.333 171.95 554.081 169.172 554.331 168.497C554.581 167.822 555.397 168.405 555.397 168.405L556.463 170.615C556.463 170.615 559.34 170.715 559.656 169.755C559.971 168.796 560.721 163.333 560.471 161.607C560.221 159.88 560.386 159.305 560.521 159.021C560.661 158.737 560.822 158.676 560.521 157.264C560.221 155.852 558.72 156.428 558.409 155.66C558.099 154.893 558.159 154.509 558.66 154.126C559.16 153.742 559.726 152.691 559.225 152.208C558.725 151.724 558.414 151.248 558.79 150.673C559.165 150.097 559.916 150.389 559.29 149.43C558.665 148.471 558.039 147.036 557.854 146.169C557.669 145.302 558.104 146.169 558.104 145.118C558.104 144.067 557.354 143.491 557.354 142.724C557.354 141.957 557.729 138.795 557.544 137.928C557.359 137.061 557.234 136.969 556.858 137.069C556.483 137.169 556.298 137.936 555.922 137.453C555.547 136.969 555.297 137.836 555.547 136.977C555.797 136.117 556.298 136.593 556.238 135.542C556.178 134.491 556.238 134.391 556.238 133.816C556.238 133.24 556.238 133.048 556.553 132.473C556.868 131.897 557.244 131.422 557.304 130.846C557.364 130.271 557.178 127.393 557.118 126.15C557.058 124.907 556.933 125.099 557.183 124.14C557.434 123.181 557.809 122.797 557.809 122.13C557.809 121.462 557.559 120.503 557.123 120.02C556.688 119.536 556.748 119.061 556.313 120.02C555.877 120.979 555.627 121.746 555.627 121.746L555.192 120.695L554.942 122.521C554.942 122.521 555.192 123.864 555.192 124.155C555.192 124.194 555.202 124.255 555.217 124.316L554.756 124.247V126.649L552.57 129.818V128.767L551.258 126.465L550.198 127.808L548.571 129.726L547.695 129.25L547.635 126.948V124.363L548.386 122.828L548.886 121.009L548.011 121.201L547.2 118.899L546.514 119.958V120.917C546.514 120.917 546.454 122.744 546.204 123.127C545.954 123.511 546.204 125.621 546.204 125.621C546.204 125.621 545.699 127.639 545.699 127.923C545.699 128.207 546.139 130.608 546.199 130.992C546.259 131.376 545.388 131.184 545.388 131.184L544.763 129.841L544.388 128.023L543.952 126.204L542.951 124.002L543.327 121.8L542.576 120.94H541.7L541.265 122.091L541.765 123.434L542.581 126.695L542.956 129.097L543.957 131.882V134.376L543.332 133.348L542.081 132.557V126.71L541.58 124.508L540.644 123.457L540.334 124.992L541.275 126.526V131.997L540.464 132.48L539.964 130.562L538.778 129.895L537.592 130.47L537.216 132.005L536.341 132.104L536.091 129.711L536.656 128.084L537.156 125.306L537.597 124.447L537.161 124.639L535.535 123.488L534.91 124.355L535.85 125.222V126.664L535.225 128.491V131.084L534.724 131.567L533.724 129.749H533.223C533.223 129.749 531.537 131.191 531.412 131.575C531.286 131.959 530.786 133.018 530.786 133.018C530.786 133.018 532.352 134.46 532.603 134.36C532.853 134.261 533.228 134.936 533.228 134.936C533.228 134.936 532.918 136.087 532.728 136.279C532.538 136.47 532.247 135.319 532.247 135.319L530.476 135.703C530.476 135.703 532.102 138.772 532.227 139.064C532.352 139.355 531.917 140.023 531.792 140.314C531.667 140.606 531.482 141.565 531.417 141.657C531.352 141.749 531.417 143.675 531.417 143.959L531.732 145.302L531.422 146.453L532.112 147.704V148.762H530.986L529.985 149.913C529.985 149.913 529.26 148.847 526.012 153.451V153.458C525.247 154.556 524.508 155.695 523.795 156.873V156.88C521.979 159.865 519.652 164.085 516.674 170.07L516.644 133.516L518.335 128.867C518.335 128.867 518.21 117.802 518.115 112.815C517.079 112.262 516.058 111.794 515.053 111.38V116.268H514.302V111.088C513.396 110.743 512.495 110.452 511.615 110.206V115.692H510.989V110.053C509.993 109.807 509.013 109.615 508.052 109.477V114.994L507.051 114.587V109.001C504.864 108.748 503.037 109.047 501.176 109.362L500.866 90.9777H500.45C500.45 90.9777 500.866 92.3818 500.285 92.7655C499.7 93.1491 499.7 92.8959 498.949 93.786C498.198 94.676 498.283 94.9369 497.533 95.7042C496.782 96.4715 497.283 96.7247 496.117 97.1083C494.951 97.492 495.031 97.7452 494.615 98.2593C494.2 98.7734 494.03 99.9243 494.615 99.5407C495.201 99.157 494.78 98.5202 495.201 99.157C495.616 99.7939 494.615 101.973 494.615 101.973C494.615 101.973 494.951 101.843 497.368 99.5407C499.785 97.2388 500.37 97.1083 500.37 97.1083L500.705 100.561V109.431L500.02 109.546V114.503H499.024V109.723C497.953 109.93 496.927 110.183 495.956 110.475V115.976H494.67V110.897C493.564 111.288 492.539 111.718 491.598 112.163V117.541H489.791V113.091C486.819 114.733 485.107 116.268 485.107 116.268L484.887 128.583L486.328 132.081C486.328 132.081 486.298 143.161 486.328 143.307C486.358 143.453 483.391 145.709 483.391 145.709L483.206 147.097V150.074L482.145 150.174C482.145 150.174 481.99 149.023 481.924 148.831C481.859 148.64 483.02 146.338 483.02 146.338C483.02 146.338 483.085 137.36 483.116 133.47C482.285 133.079 481.469 132.764 480.668 132.496V136.992H479.542V132.158C478.862 131.974 478.191 131.836 477.541 131.729V136.125H476.415V131.59C475.149 131.468 473.948 131.483 472.827 131.583L472.401 114.994L470.94 116.659L469.774 118.83C469.774 118.83 469.274 120.112 468.938 120.879C468.603 121.646 469.024 121.777 468.188 122.544C467.352 123.311 466.601 124.777 467.352 124.232C468.103 123.695 468.688 123.05 468.688 123.05L469.954 120.879C469.954 120.879 470.109 119.214 471.025 119.091L471.941 118.961L472.231 131.652C472.126 131.667 472.021 131.675 471.921 131.69V136.133H470.795V131.882C469.829 132.074 468.953 132.319 468.173 132.588V137.483H467.047V133.018C465.285 133.739 464.27 134.452 464.27 134.452L464.415 138.105L463.289 139.494V145.102C463.154 145.049 462.073 144.872 460.601 144.657V148.517H459.475V144.489C458.525 144.35 457.489 144.197 456.473 144.051V148.517H455.347V143.89C454.056 143.698 452.885 143.522 452.094 143.399V147.657H450.968V143.115C450.563 142.893 448.931 142.379 448.931 142.379L448.711 123.871L450.278 120.756L450.258 98.4051C448.931 97.7299 447.65 97.1927 446.404 96.7631V102.242H445.278V96.4024C444.157 96.0725 443.071 95.8346 442.026 95.6735V101.282H440.9V95.5277C439.894 95.428 438.923 95.3973 437.997 95.428V74.2584C437.997 74.2584 438.332 72.2098 437.997 72.4706C437.662 72.7238 437.247 74.2584 436.911 74.5193C436.576 74.7725 435.495 75.2866 435.495 75.2866C435.495 75.2866 435.16 76.568 434.494 77.9721C433.829 79.3763 434.079 79.5067 433.078 79.7599C432.077 80.0131 432.077 79.7599 431.492 80.7804C430.906 81.8009 430.741 82.5682 430.826 83.3355C430.911 84.1028 430.826 84.1028 431.577 82.8214C432.327 81.54 432.242 81.4172 433.078 81.1564C433.914 80.9032 434.494 81.2868 435.08 80.6423C435.665 80.0054 435.745 79.6218 436.416 79.2381C437.081 78.8545 437.582 79.3686 437.582 79.3686V95.075C436.311 95.1364 435.12 95.3052 434.019 95.5508V101.298H432.893V95.827C431.832 96.1262 430.876 96.4792 430.015 96.8628V102.641H428.889V97.3999C426.427 98.6583 425.071 99.955 425.071 99.955L425.261 112.769C425.261 112.769 424.396 112.915 424.115 112.815C423.8 112.7 424.04 111.173 423.45 110.643C421.183 109.162 418.936 108.219 416.779 107.636V111.472H415.818V107.398C415.568 107.344 415.318 107.298 415.068 107.252V88.0697L415.483 86.4046C415.483 86.4046 414.898 86.4046 414.732 87.0415C414.567 87.6783 414.147 89.0902 414.147 89.0902C414.147 89.0902 413.897 88.837 413.231 89.0902C412.566 89.3434 412.065 89.727 411.565 89.8575C411.064 89.9879 410.479 89.727 410.314 90.1107C410.148 90.4943 410.148 91.6452 410.148 91.6452L409.063 94.2003C409.648 94.0699 409.978 93.5635 410.729 93.3026C411.48 93.0494 412.315 93.3026 412.315 93.3026L413.316 91.3844H414.317V107.121C413.527 107 412.734 106.925 411.94 106.899V111.464H410.979V106.884C410.118 106.891 409.293 106.96 408.497 107.06L408.072 92.4125C408.072 92.4125 409.158 91.0084 408.572 90.7475C407.987 90.4943 407.656 90.7475 407.656 90.7475L407.491 92.4125C407.491 92.4125 406.656 93.8167 406.155 94.9676C405.655 96.1185 405.82 96.6326 405.319 97.139C404.819 97.6531 404.569 97.9063 403.983 98.4204C403.398 98.9345 402.732 100.592 402.732 100.592V103.024C402.732 103.024 401.982 105.196 402.317 104.942C402.652 104.689 404.153 103.661 404.404 103.024C404.654 102.387 405.154 103.024 405.154 103.024C405.154 103.024 405.82 101.873 406.07 100.339C406.32 98.8041 407.486 97.6531 407.486 97.6531L407.751 107.152C407.701 107.16 407.651 107.16 407.601 107.168V111.909H406.641V107.336C404.914 107.682 403.388 108.173 402.137 108.679V111.909H401.176V109.086C399.434 109.868 398.424 110.559 398.424 110.559L398.674 133.048L400.52 136.217L400.175 147.581L376.685 146.859C376.685 146.859 376.655 145.179 376.59 144.174C376.525 143.169 376.905 142.639 377.496 141.442C378.086 140.245 378.622 139.716 378.777 138.565C378.932 137.414 378.527 125.329 378.527 125.329V122.114L378.306 120.242C378.306 120.242 378.026 119.575 377.526 119.137C377.025 118.7 376.87 118.562 376.65 118.324C376.43 118.086 375.554 117.411 374.493 117.081C373.432 116.751 373.432 116.935 373.432 117.081V122.16C373.432 122.16 373.152 123.073 372.997 123.311C372.842 123.549 372.341 123.457 372.341 123.457L372.031 122.69V120.58C372.031 120.434 372.061 118.47 371.876 116.314C371.177 115.861 370.447 115.534 369.699 115.339V89.3741C369.699 89.3741 368.113 91.1618 366.336 92.5737C364.555 93.9778 365.03 95.5124 364.194 97.047C363.359 98.5816 362.778 99.9857 363.028 99.9857C363.279 99.9857 364.53 98.1979 364.945 98.9652C365.36 99.7325 365.611 99.7325 365.946 98.8348C366.281 97.937 369.034 94.8679 369.034 94.8679V115.186C366.647 114.764 364.625 115.554 364.219 115.838C363.659 116.222 364.064 116.222 363.999 116.559C363.934 116.897 363.999 117.564 363.999 117.564V122.122C363.999 122.122 363.844 122.651 363.594 122.651C363.344 122.651 363.284 122.03 363.284 122.03V119.874C363.284 119.874 363.159 117.334 363.099 116.805C363.038 116.275 363.194 116.037 361.442 116.521C359.691 117.004 358.004 118.485 358.004 118.485L357.819 137.767C357.819 137.767 357.694 139.018 357.914 139.785C358.134 140.552 358.229 140.89 358.229 140.89L358.385 142.662L359.165 144.68L360.386 147.796L360.541 172.495C360.541 172.495 360.511 173.362 360.356 174.367C360.201 175.372 359.981 174.988 359.576 175.664C359.17 176.339 358.73 176.001 358.73 176.001C358.73 176.001 358.104 175.572 357.574 174.912C357.043 174.252 357.264 174.612 356.198 174.229C355.132 173.845 355.637 174.275 354.977 174.421C354.316 174.566 354.041 174.52 354.041 174.52L353.57 174.183C353.57 174.183 353.57 173.415 353.696 172.456C353.821 171.497 353.791 170.876 353.791 170.876L353.54 169.341L354.511 169.249L355.732 168.482L356.358 167.139C356.358 167.139 355.762 166.471 355.547 166.518C355.332 166.564 352.86 166.755 352.86 166.755C352.86 166.755 352.735 165.942 352.675 165.796C352.615 165.65 352.394 163.402 352.394 163.402L351.989 160.763L351.364 157.502C351.364 157.502 350.363 154.479 348.926 149.445C347.49 144.412 345.549 143.836 345.549 143.836L342.736 143.307C342.736 143.307 339.639 143.215 339.483 142.877C339.328 142.54 339.328 141.826 339.138 141.197C338.948 140.568 338.703 139.708 338.608 138.941C338.513 138.174 338.923 137.069 339.173 136.355C339.423 135.642 339.739 133.14 339.674 129.02C339.203 125.375 334.985 118.186 334.985 118.186C334.985 118.186 334.764 117.61 334.734 116.989C334.704 116.367 334.86 116.321 334.955 115.025C335.05 113.728 334.895 113.06 334.895 113.06C334.895 113.06 334.739 111.863 334.925 110.475C335.11 109.086 334.99 109.753 335.08 109.132C335.17 108.51 335.08 108.027 334.799 107.551C334.519 107.075 334.549 107.168 334.329 106.208C334.109 105.249 334.329 104.866 334.329 103.477C334.329 102.088 333.924 102.18 333.518 101.513C333.113 100.845 332.583 100.6 332.172 100.6C331.762 100.6 331.487 101.321 330.826 102.809C331.106 104.006 331.016 106.5 331.046 106.792C331.076 107.083 330.361 106.792 330.361 106.792L330.456 109.239H331.176V110.82L330.581 111.203L330.706 113.413L331.176 114.135V116.199L330.02 115.623C330.02 115.623 329.585 115.531 328.834 115.961C328.084 116.39 328.554 116.153 327.613 117.595C326.673 119.038 326.708 118.892 325.987 120.089C325.266 121.286 325.987 121.478 325.987 121.478C325.987 121.478 325.862 122.345 325.391 123.204C324.921 124.063 325.266 123.879 325.266 124.838C325.266 125.797 325.331 125.268 325.171 127.186C325.011 129.104 324.986 127.953 324.641 129.68C324.296 131.406 324.641 131.406 324.641 132.941C324.641 134.475 324.766 134.092 324.831 135.626C324.896 137.161 324.896 136.877 325.111 137.644C325.326 138.412 325.987 139.708 326.207 140.476C326.427 141.243 325.927 141.726 325.927 141.726C325.927 141.726 325.427 142.064 324.741 142.977C324.055 143.89 324.461 143.46 323.865 144.32C323.27 145.179 323.395 144.941 322.364 145.616C321.333 146.292 321.708 145.954 320.642 146.576C319.577 147.197 319.486 147.105 318.015 148.686C316.544 150.266 316.704 150.796 316.704 150.796C316.704 150.796 316.049 152.568 315.393 155.116C314.737 157.663 314.672 157.417 314.547 158.998C314.422 160.579 313.246 166.287 313.246 166.287V168.781L312.731 171.321L312.075 174.973L311.795 177.167L311.575 178.994L311.64 181.679L311.83 184.027L312.09 185.209L309.043 187.104L308.607 186.145V182.6C308.607 181.932 308.172 179.822 307.671 179.531C307.171 179.239 305.7 179.7 304.919 180.874C304.414 181.641 304.324 182.37 305.485 184.902C306.255 186.574 307.236 187.587 307.236 187.587L300.24 192.375C300.035 192.245 299.845 192.122 299.76 192.084C299.54 191.992 299.479 189.252 299.479 189.252L298.293 189.16V89.5812C307.191 88.8676 308.302 84.1028 308.302 84.1028C308.302 84.1028 309.428 75.2789 309.928 68.5651C310.319 63.3475 302.007 61.836 298.293 61.4216V35.5102C299.58 34.3516 300.816 33.0779 300.816 33.0779C300.816 33.0779 300.44 26.5559 300.19 23.8704C300.035 22.2054 298.253 21.8678 296.922 21.8524V0C296.922 0 295.046 0.468048 295.046 1.04352V21.8601C293.705 21.8064 291.468 21.9982 291.293 23.8704C291.042 26.5559 290.667 33.0779 290.667 33.0779C290.667 33.0779 291.588 34.0294 292.669 35.0345L292.569 61.5598C288.535 62.1352 281.684 63.8079 282.035 68.5651C282.535 75.2789 283.661 84.1028 283.661 84.1028C283.661 84.1028 284.672 88.4226 292.464 89.4508L292.068 193.296L291.793 193.48L291.358 192.813L290.857 191.57L290.387 191.761L289.886 193.442L289.416 192.628C289.416 192.628 288.76 191.14 288.665 191.14C288.57 191.14 288.355 192.966 287.915 193.058C287.474 193.15 287.509 192.912 287.509 192.912L286.854 190.564V192.099C286.854 192.099 286.008 190.518 285.948 190.373C285.888 190.227 285.793 189.367 285.793 189.076C285.793 188.784 285.262 188.263 285.262 188.263L284.232 188.216L283.701 188.792V189.705L283.326 190.327L283.171 194.117L282.17 194.217L282.295 195.797L281.419 196.902C281.419 196.902 281.544 200.309 281.294 200.455C281.044 200.601 280.794 201.222 280.794 201.222C280.794 201.222 280.198 201.222 280.108 201.13C280.018 201.038 280.233 175.142 280.233 175.142L279.703 174.375L279.983 155.576L281.514 153.949L281.639 150.351L282.045 149.299L283.361 148.77L283.706 146.952C283.706 146.952 282.205 146.714 281.985 146.714C281.764 146.714 281.734 146.138 281.734 146.138L282.175 144.987L283.706 144.266V143.023H282.175L281.674 141.78L279.798 141.205L279.548 140.008C279.548 140.008 278.612 139.862 278.702 140.054C278.792 140.245 278.482 141.159 278.046 141.112C277.611 141.066 276.765 141.496 276.765 141.496L276.64 142.263L274.483 142.693L274.328 143.99L276.02 144.611L276.27 146.576L274.423 146.959L274.453 148.594L275.799 149.077L275.829 151.233L274.608 151.571L274.733 152.913C274.733 152.913 275.889 153.151 276.015 153.251C276.14 153.351 276.11 153.734 276.39 154.064C276.67 154.394 276.61 154.548 277.171 155.023C277.731 155.499 278.702 155.507 278.702 155.507L278.547 174.497L278.236 175.265V189.03C278.236 189.03 276.61 189.321 276.515 188.746C276.42 188.17 276.515 187.787 276.39 186.927C276.265 186.068 276.61 185.968 276.92 185.73C277.231 185.493 277.201 185.063 277.201 185.063L277.391 181.418L277.171 180.029C277.171 180.029 276.985 179.5 276.67 178.687C276.355 177.873 275.984 179.646 275.984 179.646L275.264 180.029C275.264 180.029 274.793 179.746 273.763 178.733C272.732 177.72 272.887 179.738 272.887 179.738C272.887 179.738 272.326 179.884 271.916 179.546C271.506 179.208 271.511 177.774 271.511 177.774L271.791 175.955L272.291 173.699L272.071 172.311L271.416 171.835C271.416 171.835 270.945 171.451 270.885 170.876C270.825 170.3 270.915 169.487 270.7 168.428C270.485 167.369 270.265 167.952 269.544 166.61C268.823 165.267 269.574 165.842 269.669 164.737C269.764 163.632 269.234 163.824 269.169 162.965C269.104 162.106 269.044 162.152 268.638 161.338C268.233 160.525 268.013 160.955 267.577 160.863C267.142 160.77 266.827 161.246 266.827 161.246L265.546 162.497L265.155 163.556C265.155 163.556 264.885 164.661 264.73 165.328C264.575 165.996 264.67 165.95 264.635 166.817L264.23 169.073C263.824 171.328 264.23 169.41 264.67 169.94C265.11 170.469 265.075 170.369 265.14 171.137C265.205 171.904 265.14 171.137 264.33 171.566C263.519 171.996 263.329 172.479 263.329 172.479L262.798 173.63V174.589L256.628 175.127C256.628 175.127 256.523 183.229 256.563 186.406C256.533 186.398 256.513 186.39 256.513 186.39C256.513 186.39 255.827 187.204 255.482 187.495C255.137 187.787 254.842 189.605 254.842 189.605V199.772L249.757 199.242L249.882 182.891L249.162 181.84L249.227 149.23L249.757 148.079C249.757 148.079 251.354 148.179 251.479 148.179C251.604 148.179 251.824 147.796 251.824 147.22C251.824 146.645 251.889 146.261 251.854 145.402C251.819 144.542 251.919 145.018 252.45 144.926C252.98 144.834 253.015 145.118 253.921 145.026C254.827 144.934 254.812 144.404 254.812 144.404C254.812 144.404 254.892 143.253 254.812 142.678C254.731 142.102 254.331 142.294 253.891 142.202C253.45 142.11 252.765 142.44 252.264 142.348C251.764 142.256 251.954 141.726 251.889 141.105C251.824 140.483 251.919 140.146 251.984 139.616C252.049 139.087 252.89 139.378 252.89 139.378L254.111 139.332L254.802 138.373C254.802 138.373 254.832 137.322 254.802 136.693C254.771 136.064 254.551 136.117 253.771 136.217C252.99 136.317 252.114 135.933 251.989 135.88C251.864 135.826 250.988 134.445 250.988 134.445L249.392 134.491C249.392 134.491 249.422 133.34 249.392 132.381C248.922 132.189 247.455 132.289 247.455 132.289L247.675 134.061L246.8 133.915C244.202 133.915 244.047 135.933 244.047 135.933L244.077 142.363L242.891 142.509C242.891 142.509 242.706 143.806 242.891 144.381C243.077 144.957 244.112 145.056 244.112 145.194C244.112 145.333 244.082 148.072 244.082 148.218C244.082 148.363 243.397 148.363 243.302 148.601C243.207 148.839 243.332 150.374 243.332 150.374C243.332 150.374 244.147 150.995 244.238 150.995C244.328 150.995 244.333 152.53 244.333 152.53C244.333 152.53 245.053 152.676 246.524 152.821C246.715 154.885 247.09 154.548 247.09 154.548L246.78 208.688H241.4L241.275 208.066L242.216 207.637L243.062 207.253L243.752 206.777L243.942 206.11L243.412 205.826C243.412 205.826 243.287 205.25 242.506 204.099C241.725 202.948 241.41 202.995 241.35 202.856C241.29 202.718 241.1 201.997 240.975 201.23C240.569 200.946 239.849 200.654 239.849 200.654C239.849 200.654 239.629 200.033 239.694 199.457C239.759 198.882 240.479 198.882 240.479 198.882C240.479 198.882 240.444 198.161 240.474 197.393C240.504 196.626 240.379 196.58 240.089 196.288C239.799 195.997 239.604 195.813 239.473 195.475C239.343 195.137 239.789 194.47 239.789 194.47C239.789 194.47 239.914 192.935 239.914 192.214C239.914 191.493 238.913 190.825 238.913 190.825C238.913 190.825 239.133 187.326 239.133 186.797C239.133 186.268 237.852 184.833 237.852 184.833C237.852 184.833 237.792 183.298 237.852 182.677C237.912 182.055 239.198 182.915 239.729 182.677C240.259 182.439 240.044 178.886 240.074 178.748C240.104 178.61 239.604 176.3 239.604 176.3C239.604 176.3 237.667 176.346 237.352 176.784C237.036 177.221 237.227 178.51 237.227 178.51L236.666 178.556L236.606 172.756C236.606 172.756 237.887 172.226 238.012 172.18C238.137 172.134 238.232 171.559 238.232 171.413C238.232 171.267 238.202 170.745 238.202 170.5C238.202 170.254 238.297 170.07 238.578 169.349C238.643 167.668 238.673 167.193 238.828 166.763C238.983 166.333 237.106 164.461 236.856 164.223C236.606 163.985 236.606 163.218 236.511 162.881C236.416 162.543 234.825 162.689 234.414 162.735C234.004 162.781 234.069 163.502 234.009 164.077C233.949 164.653 232.322 165.274 231.947 165.896C231.572 166.518 232.012 167.047 232.012 167.047V169.924C231.917 171.559 233.263 172.326 233.263 172.326V180.528L230.731 180.29C230.731 180.29 230.576 179.139 230.546 178.994C230.516 178.848 230.611 178.272 231.111 177.843C230.206 175.395 228.985 175.257 228.985 175.257L228.674 174.681C228.674 174.681 228.829 173.868 228.99 173.293C228.209 172.817 226.958 173.293 226.958 173.293C226.958 173.293 227.178 174.16 227.148 175.08C225.301 175.288 224.896 178.188 224.896 178.188C224.896 178.188 225.301 178.618 225.311 178.763C225.316 178.909 225.311 179.868 225.311 179.868L223.71 180.014C223.71 180.014 223.15 178.963 223.15 178.817C223.15 178.671 223.495 177.237 223.495 177.237C223.495 177.237 222.934 176.04 222.869 175.802C222.804 175.564 223.185 175.096 223.185 175.096L223.25 167.699L225.251 167.745C225.251 167.745 225.407 167.553 225.251 166.64C222.404 161.369 216.524 162.904 216.524 162.904L210.489 162.758C210.489 162.758 204.639 162.904 204.549 162.904C204.459 162.904 203.363 163.579 203.363 163.579C203.363 163.579 201.736 163.679 191.353 163.625C180.969 163.571 151.759 166.165 151.759 166.165L151.539 166.932L152.104 168.129V171.397L151.884 172.387V175.418L151.198 175.71L151.389 177.582L151.203 178.879L150.393 178.595C150.393 178.595 148.861 178.257 147.61 178.549C146.359 178.84 144.608 182.868 144.328 183.39C144.047 183.912 143.357 183.582 143.357 183.582V180.85L142.451 180.758V179.654L142.481 177.398L142.451 175.111L142.796 173.323L143.327 172.41C143.327 172.41 143.392 167.622 143.327 167.431C143.262 167.239 142.701 167.431 142.701 167.431C142.701 167.431 142.356 167.047 142.231 166.748C142.106 166.448 140.825 166.748 140.825 166.748V162.566L138.072 152.898L137.977 150.642L137.477 150.021C137.477 150.021 137.727 140.476 137.757 140.092C137.787 139.708 138.132 139.371 138.197 139.087C138.262 138.803 137.727 137.698 137.727 137.698L137.542 133.432C137.542 133.432 136.856 133.194 136.481 133.386C136.106 133.578 135.885 134.107 135.885 134.107C135.885 134.107 129.535 133.44 128.629 133.248C127.724 133.056 127.694 133.777 127.974 134.115C128.254 134.452 132.382 135.795 132.382 135.795C132.382 135.795 128.504 136.225 128.069 136.371C127.633 136.516 127.974 137.238 128.194 137.621C128.414 138.005 135.89 138.726 135.89 138.726L136.016 139.54L136.486 140.453L136.301 149.952L136.051 150.627V152.645L133.268 161.883V166.356C133.268 166.356 131.957 166.648 131.737 166.778C131.517 166.909 130.861 168.374 130.861 168.374V170.676C130.861 170.676 130.206 170.147 130.111 170.147C130.015 170.147 129.675 169.525 129.515 168.758C129.355 167.991 129.67 168.666 130.391 167.845C131.111 167.024 130.486 166.84 130.171 165.735C129.855 164.63 129.325 165.014 128.734 165.52C128.139 166.026 128.514 166.211 128.424 167.17C128.334 168.129 128.174 167.745 127.673 168.75C127.173 169.755 127.203 169.755 126.923 170.669C126.643 171.582 127.018 172.303 127.143 172.779C127.268 173.254 127.458 174.743 126.923 174.743C126.387 174.743 126.172 175.61 126.172 175.61L124.736 175.556L124.756 174.213L122.519 174.137L122.499 175.479L120.768 175.418L120.788 174.083L118.551 174.006L118.531 175.341L117.22 175.295L117.24 173.96L115.003 173.883L114.983 175.219L113.221 175.157L113.241 173.83L111.004 173.753L110.984 175.08L109.253 175.019L109.273 173.692L107.036 173.615L107.016 174.942L105.705 174.896L105.725 173.577L103.488 173.5L103.468 174.82L101.366 174.743L101.386 173.3L99.1493 173.224L99.1292 174.666L97.3978 174.605L97.4178 173.162L95.1809 173.086L95.1609 174.52L93.8497 174.474L93.8698 173.039L91.6329 172.963L91.6128 174.398L89.8513 174.336L89.8714 172.901L87.6345 172.825L87.6144 174.252L85.883 174.19L85.903 172.763L83.6661 172.687L83.6461 174.114L82.335 174.068L82.355 172.64L80.1181 172.564L80.0981 173.983L78.0013 173.907L78.0213 172.487L75.7844 172.41L75.7644 173.83L74.0329 173.768L74.0529 172.349L71.816 172.272L71.796 173.684L70.4849 173.638L70.5049 172.226L68.268 172.149L68.248 173.561L66.4865 173.5L66.5065 172.088L64.2696 172.011L64.2496 173.423L62.5181 173.362L62.5381 171.958L60.3012 171.881L60.2812 173.285L58.9701 173.239L58.9901 171.835L56.7532 171.758L56.7332 173.162L54.9967 173.101V171.95L52.3094 171.689V172.855L50.8082 172.901V171.681L48.6513 171.889C48.6513 171.889 48.7464 172.756 48.5913 172.848C48.4362 172.94 48.0608 172.848 48.0608 172.564C48.0608 172.28 48.1259 169.218 48.1259 169.218H49.1918V163.64C49.1918 163.64 48.5663 163.74 48.0058 162.612C47.4453 161.492 45.6288 160.279 45.6288 160.279V157.663L41.9406 142.731C41.9406 142.731 42.1308 132.089 42.1908 131.322C42.2509 130.555 42.8814 130.746 42.8164 129.787C42.7513 128.828 42.5061 128.253 42.5061 128.253C42.5061 128.253 42.5712 125.667 42.5061 124.708C42.4411 123.749 41.8205 123.173 41.3802 123.166C40.9448 123.158 40.5344 124.324 40.5344 124.324C40.5344 124.324 29.8704 123.081 29.435 123.173C28.9996 123.265 29.435 124.232 29.435 124.232L34.6294 126.342H29.6252C29.1848 126.342 29.2499 127.685 29.2499 127.685C29.2499 127.685 38.6328 129.028 39.7588 129.028C39.8238 130.47 40.4494 131.046 40.5094 131.138C40.5695 131.23 40.5094 142.739 40.5094 142.739C40.5094 142.739 36.8213 153.389 36.6311 154.249C36.441 155.108 35.8805 155.016 35.6653 154.824C35.4501 154.632 35.315 154.057 35.5652 153.581C35.8154 153.105 35.5652 151.954 35.1298 151.379C34.6945 150.803 34.0039 151.379 33.6936 152.054C33.3834 152.729 33.6936 153.88 33.6936 153.88C33.6936 153.88 33.008 155.515 32.943 156.52C32.8829 157.525 33.0681 157.141 32.8179 158.354C32.5677 159.566 33.2583 160.21 33.2583 160.21L32.6327 161.921V167.308L33.6986 168.413V176.807H32.1974V188.032H30.1356L29.5751 189.858H28.3241V196.956C28.0989 197.033 27.7486 197.163 27.5584 197.34C27.3833 197.508 27.8387 198.36 27.6785 198.583C27.6035 198.682 27.3432 198.629 27.078 198.575C26.8028 198.521 26.5275 198.46 26.4525 198.575C26.3074 198.79 27.073 199.726 26.9279 199.941C26.8528 200.056 26.5025 199.925 26.1472 199.795C25.8069 199.664 25.4616 199.542 25.3866 199.641C25.2214 199.856 26.8428 202.212 26.6577 202.381C26.5576 202.473 26.0822 201.936 25.6118 201.399C25.1564 200.884 24.706 200.37 24.5959 200.409C24.3657 200.493 24.3006 202.058 24.0404 202.043C23.9303 202.035 23.7552 202.127 23.58 202.22C23.3799 202.327 23.1747 202.427 23.0396 202.388C22.8044 202.319 23.3799 199.434 23.1397 199.342C23.0246 199.296 22.7193 199.818 22.414 200.332C22.1088 200.854 21.8035 201.368 21.6884 201.322C21.5633 201.268 21.4332 201.283 21.3031 201.291C21.188 201.306 21.0729 201.314 20.9578 201.276C20.7076 201.191 20.7026 200.37 20.4674 200.34C20.2022 200.301 19.8268 199.434 19.5967 199.496C19.3264 199.572 19.4615 199.028 19.2063 198.966C19.0962 198.943 19.0262 198.959 18.9611 198.974C18.876 198.997 18.796 199.02 18.6559 198.943C18.5408 198.874 18.1704 199.258 17.7951 199.649C17.4148 200.04 17.0345 200.432 16.9194 200.347C16.6942 200.179 17.4098 198.498 17.1896 198.337C17.0695 198.245 16.8543 198.322 16.6441 198.383C16.454 198.444 16.2688 198.506 16.1587 198.452C16.0086 198.375 15.8585 198.46 15.7134 198.537C15.6083 198.598 15.4982 198.652 15.3931 198.652C15.1579 198.652 15.318 199.143 15.0928 199.265C14.9927 199.319 14.5524 198.851 14.102 198.375C13.6416 197.892 13.1812 197.409 13.0811 197.493C12.901 197.654 15.0728 200.647 14.8977 200.831C14.8126 200.923 14.5424 200.815 14.2671 200.7C13.9969 200.585 13.7317 200.478 13.6466 200.57C13.5565 200.67 13.2813 200.57 13.0161 200.462C12.7608 200.363 12.5156 200.263 12.4306 200.34C12.2204 200.532 12.5256 202.22 12.3305 202.281C12.1003 202.358 11.0944 198.797 10.8742 198.606C10.7742 198.866 11.0244 201.222 10.9093 201.437C10.7792 201.682 11.6599 202.741 11.5148 202.948C11.4397 203.056 11.1895 203.033 10.9493 203.01C10.7141 202.987 10.4789 202.964 10.3988 203.064C10.2387 203.255 10.4539 203.831 10.2837 204.03C10.2037 204.122 9.7683 203.877 9.32793 203.631C8.87754 203.378 8.42216 203.125 8.34209 203.24C8.17695 203.455 9.20782 205.749 8.96262 205.849C8.84752 205.895 8.60731 205.68 8.36711 205.465C8.14192 205.266 7.91172 205.059 7.78662 205.074C7.65651 205.089 7.51138 205.059 7.36126 205.02C7.23114 204.989 7.10604 204.959 6.98594 204.966C6.86083 204.966 6.73072 204.897 6.60061 204.821C6.4705 204.744 6.34039 204.667 6.21528 204.675C5.95006 204.69 5.93004 205.833 5.69484 205.887C5.56973 205.918 5.28949 205.534 5.01426 205.151C4.72401 204.744 4.43377 204.337 4.33368 204.422C4.22859 204.514 3.94335 204.429 3.66311 204.353C3.37287 204.276 3.08262 204.191 2.98754 204.291C2.79738 204.491 5.04929 207.284 4.87414 207.499C4.78406 207.606 4.29865 207.307 3.80824 207.007C3.32282 206.708 2.83741 206.417 2.74733 206.516C2.56718 206.724 3.63309 208.488 3.43292 208.672C3.33283 208.765 2.85743 208.281 2.38202 207.798C1.91162 207.322 1.44122 206.846 1.32613 206.923C1.11595 207.053 1.82655 208.481 1.70645 208.765C1.60636 209.002 0.345293 208.872 0.280238 209.171C0.240204 209.348 0.990842 209.701 1.50628 210.008H0V213.33H612V210.008L606.831 205.734ZM37.7671 168.689C38.2675 166.587 39.0182 163.947 41.5203 163.732C41.5203 163.732 43.6871 165.919 43.7722 170.73C43.8573 175.541 43.7722 176.439 43.7722 176.439H41.5203L41.185 173.784L41.9356 172.479L41.7705 170.177L42.0207 168.704L41.185 167.369L40.5194 167.883V170.185L39.5186 171.605V176.454H37.7671C37.7671 176.431 37.2667 170.799 37.7671 168.689ZM43.8072 201.882V196.38L36.5961 195.23C36.5961 195.23 37.5119 191.009 41.5603 191.263C45.6038 191.516 46.5245 201.874 46.5245 201.874H43.8072V201.882ZM129.215 188.454L127.588 188.838L127.839 192.291L125.337 191.332C125.337 191.332 123.085 191.907 118.921 193.25C106.25 185.193 103.443 199.196 103.443 199.196L62.6582 197.47C62.6582 197.47 62.2829 194.209 61.9326 193.058C61.5823 191.907 51.6489 191.715 51.6489 191.715C51.6489 191.715 51.2736 189.989 51.1485 188.454C51.0234 186.92 48.5212 186.536 48.5212 186.536V181.165L129.215 183.467V188.454ZM138.598 178.863H134.509V171.935C134.509 171.935 135.01 168.881 136.426 168.697C137.122 168.605 137.842 171.275 137.927 171.935C138.012 172.602 138.593 173.791 138.593 173.791V178.863H138.598ZM153.896 168.888C153.801 168.934 152.895 169.226 152.895 169.226V167.883L153.896 167.546C153.896 167.546 153.986 168.842 153.896 168.888ZM157.959 169.51H157.179V168.466L157.959 168.259V169.51ZM159.586 170.377L159.305 169.947V168.075L159.586 168.267V170.377ZM160.742 169.057L160.271 168.505L160.506 167.883L160.742 168.267V169.057ZM162.683 171.221L161.903 171.628V168.512L162.683 168.275C162.713 168.605 162.683 171.221 162.683 171.221ZM164.34 169.372L163.744 169.057V168.075L164.34 168.267V169.372ZM167.437 174.083L166.186 173.692V172.257L166.592 171.49L166.031 170.385L165.376 169.855V168.275H167.442C167.437 168.313 167.437 174.083 167.437 174.083ZM168.909 174.083H168.348V168.267H168.914V174.083H168.909ZM170.255 169.372L169.349 169.855C169.349 169.855 169.379 168.367 169.349 168.275H170.255V169.372ZM174.383 173.208L172.256 172.825V167.745L174.383 167.553V173.208ZM176.135 176.707H175.384V167.546H176.135V176.707ZM177.886 173.73C177.886 173.73 176.885 175.502 176.885 175.364C176.885 175.226 176.73 167.07 176.73 167.07H177.886V173.73ZM181.024 172.533L179.948 173.208L179.072 174.083V167.553L181.074 167.078L181.139 167.561C181.124 167.653 181.119 167.822 181.114 168.037C181.104 168.735 181.139 169.863 181.139 169.863C181.139 169.863 180.513 171.397 180.704 171.114C180.894 170.83 181.394 171.152 181.394 171.152L181.024 172.533ZM186.894 167.546C186.894 167.546 185.458 167.737 185.267 168.029C185.077 168.321 185.267 169.372 185.267 169.372L185.182 171.098C185.182 171.098 184.202 171.006 184.202 171.098V167.07L184.952 165.919L186.894 166.494V167.546ZM191.898 168.605L191.087 169.088V170.339L191.493 171.681L190.462 172.257V169.863L189.401 168.62H188.09V166.51H191.908V168.605H191.898ZM193.835 167.07V168.605C193.835 168.605 192.959 168.129 192.959 167.837V166.494H193.835V167.07ZM197.403 168.121L196.527 168.988V170.814L196.027 171.773L194.841 173.216V166.502H197.408C197.403 167.07 197.403 168.121 197.403 168.121ZM203.533 178.579H201.531C201.531 178.579 200.971 176.569 200.595 176.377C200.22 176.185 200.595 173.216 200.595 173.216L198.784 172.495V168.129C198.784 168.129 198.349 168.037 198.283 167.078C198.218 166.118 198.534 165.927 198.534 165.927L203.538 166.41V178.579H203.533ZM209.913 166.686C209.913 166.686 208.037 166.978 208.162 169.855C208.412 171.681 208.157 172.349 208.157 172.349L206.726 173.216L205.725 175.994L205.099 178.587H204.599V165.927H209.918V166.686H209.913ZM214.417 180.498C213.982 180.498 212.481 179.73 212.481 179.73C212.481 179.73 212.105 177.912 211.48 177.336C211.355 173.6 211.48 165.927 211.48 165.927H214.422C214.417 165.919 214.853 180.498 214.417 180.498ZM217.545 179.73H215.418V165.919L217.545 166.402V179.73ZM221.298 169.755V175.986L220.392 176.469V178.579H219.487V167.07H221.303L220.803 168.413L221.298 169.755ZM262.238 176.17C262.238 176.17 262.208 176.891 261.988 177.85C261.767 178.809 261.863 178.234 261.487 178.717C261.112 179.201 261.177 179.009 260.767 179.723C260.356 180.436 260.611 180.536 260.892 181.211C261.172 181.886 261.207 181.595 261.547 182.27C261.888 182.945 261.547 182.608 261.392 183.137C261.237 183.666 261.017 183.759 260.767 184.434C260.516 185.109 260.081 184.917 259.671 185.493C259.26 186.068 259.045 186.168 258.45 186.551C258.244 186.682 257.914 186.697 257.564 186.659C257.504 183.482 257.449 176.592 257.449 176.592L262.258 176.009L262.238 176.17ZM312.626 191.846C312.596 192.084 311.815 192.851 311.72 192.851C311.625 192.851 311.064 192.613 311.064 192.613C311.064 192.613 310.169 193.235 310.144 193.426C310.119 193.618 309.533 194.623 309.468 194.769C309.403 194.915 308.842 194.869 308.842 194.869L307.746 194.723C307.746 194.723 307.561 195.345 307.466 195.398C307.371 195.452 306.591 195.882 306.591 195.882L305.87 195.114L304.994 194.685C304.994 194.685 304.434 195.452 304.434 195.598C304.434 195.744 303.558 196.081 303.213 196.219C302.867 196.357 302.182 195.836 302.182 195.836L301.621 194.715C303.203 193.802 307.341 191.439 308.978 190.664C310.129 190.127 311.5 189.037 312.475 188.186L312.536 188.447C312.536 188.447 312.851 188.93 312.941 189.122C313.031 189.314 312.631 190.373 312.631 190.373C312.631 190.373 312.656 191.608 312.626 191.846ZM424.596 143.668V129.089L426.287 126.595L426.728 144.535L424.596 143.668ZM553.24 131.652L555.557 128.322L555.272 130.532L554.146 132.45L553.27 132.258C553.265 132.25 553.195 131.982 553.24 131.652ZM540.629 166.011H542.571C542.571 166.011 544.262 168.313 544.448 168.221C544.633 168.129 546.324 168.896 546.324 168.896L548.641 169.088L549.016 167.461L550.518 167.753L552.334 174.95L553.23 180.229V181.955L541.135 180.996C541.135 180.712 539.073 167.285 539.073 167.285L540.629 166.011ZM529.63 150.872L529.37 152.683V154.026L526.713 153.366C527.924 151.732 528.954 150.734 529.63 150.872ZM525.872 154.563L529.375 155.177V158.054L524.456 156.781C524.936 155.99 525.411 155.238 525.872 154.563ZM523.64 158.123L528.834 158.99C528.399 159.75 527.723 160.924 526.923 162.313L521.723 161.469C522.359 160.325 523.004 159.198 523.64 158.123ZM521.248 162.32L526.282 163.418C525.802 164.246 525.296 165.121 524.781 166.019L519.647 165.251C520.162 164.292 520.702 163.31 521.248 162.32ZM517.234 171.658C517.255 171.098 517.014 170.684 516.804 170.431C517.485 169.234 518.315 167.691 519.231 166.011L524.205 167.016C522.884 169.287 521.548 171.574 520.522 173.3C519.411 173.032 517.209 172.41 517.234 171.658ZM539.253 191.332C539.233 191.907 539.233 192.421 539.248 192.897C539.098 192.813 539.003 192.767 539.003 192.767L538.598 192.483C538.598 192.483 537.221 192.337 535.875 192.674C534.529 193.012 533.593 196.173 533.528 196.419C533.468 196.657 533.278 196.519 531.967 195.03C531.687 184.242 526.617 183.567 525.151 182.608C525.266 176.738 521.668 173.837 521.198 173.484C522.534 171.267 527.253 163.717 529.625 159.758L529.685 160.18C529.685 160.18 530.251 160.855 530.656 160.855C531.061 160.855 532.502 161.53 532.502 161.53V163.065L532.127 164.216L531.877 165.175L532.502 166.326V168.152L532.878 169.019L534.504 169.502V170.945L535.07 172.579H538.012C538.002 172.533 539.378 187.303 539.253 191.332ZM553.42 202.066C552.765 202.642 551.514 202.549 550.608 202.112C549.702 201.675 548.296 199.856 546.92 199.956C545.544 200.056 544.823 201.636 544.823 201.636L542.601 200.585C542.601 200.585 542.321 199.964 542.321 199.726C542.336 198.253 542.101 197.079 541.755 196.135H541.76L541.135 184.725L553.585 185.017C553.585 185.017 554.461 191.447 554.461 193.649C554.461 195.176 554.551 198.59 554.646 200.769C553.901 201.084 554.031 201.529 553.42 202.066Z" fill="#676767"/>
</g>
<defs>
<clipPath id="clip0_36_398">
<rect width="612" height="213" fill="white"/>
</clipPath>
</defs>
</svg>
