<svg width="60" height="60" viewBox="0 0 60 60" fill="none" xmlns="http://www.w3.org/2000/svg">
<g clip-path="url(#clip0_46_597)">
<path d="M29.9589 53.1059C29.1429 53.1059 27.9369 52.8119 26.7909 51.4259C21.5889 45.1259 16.6449 38.8439 13.3449 31.3619C12.6429 29.7719 11.7249 27.3839 11.8329 24.9719C11.9349 15.0239 20.0709 6.9179 29.9949 6.8999C30.0069 6.8999 30.0189 6.8999 30.0249 6.8999C39.8229 6.8999 48.1329 15.0779 48.1809 24.7679C48.1989 28.9199 46.2729 32.4299 44.7189 35.2499C41.4609 41.1779 37.3269 46.4459 33.3489 51.2519C32.0829 52.7819 30.8049 53.1059 29.9589 53.1059ZM30.0249 10.5959C30.0129 10.5959 30.0069 10.5959 30.0009 10.5959C21.9549 10.6139 15.5949 16.9559 15.5289 25.0379V25.1099C15.4689 26.3579 15.8469 27.8699 16.7289 29.8619C19.8369 36.9119 24.6129 42.9719 29.6409 49.0619C29.8809 49.3499 30.0189 49.4099 30.0189 49.4099C29.9709 49.3919 30.1869 49.2659 30.4929 48.8939C34.3569 44.2259 38.3649 39.1259 41.4729 33.4679C43.1829 30.3539 44.4909 27.7379 44.4789 24.7799C44.4429 17.0879 37.8249 10.5959 30.0249 10.5959ZM30.0369 32.3879C29.9769 32.3879 29.9229 32.3879 29.8629 32.3879C27.9309 32.3399 26.0409 31.4939 24.6789 30.0539C23.3229 28.6259 22.6149 26.7959 22.6689 24.8999C22.7889 21.0479 26.1189 17.7839 29.9409 17.7839H29.9469C31.8909 17.7839 33.7209 18.5579 35.1189 19.9559C36.5109 21.3539 37.2729 23.1959 37.2549 25.1339C37.2429 27.1139 36.4509 28.9679 35.0229 30.3539C33.6669 31.6619 31.8969 32.3879 30.0369 32.3879ZM29.9529 21.4739C28.1049 21.4739 26.4309 23.1239 26.3709 25.0079C26.3409 25.9139 26.6949 26.7959 27.3669 27.5099C28.0569 28.2359 28.9989 28.6679 29.9529 28.6919C30.8529 28.6679 31.7649 28.3619 32.4549 27.6959C33.1629 27.0059 33.5589 26.0879 33.5649 25.1039C33.5709 24.1619 33.1929 23.2559 32.5029 22.5599C31.8069 21.8579 30.9009 21.4739 29.9529 21.4739Z" fill="#006DB7"/>
</g>
<defs>
<clipPath id="clip0_46_597">
<rect width="60" height="60" fill="white"/>
</clipPath>
</defs>
</svg>
