<svg width="60" height="60" viewBox="0 0 60 60" fill="none" xmlns="http://www.w3.org/2000/svg">
<g clip-path="url(#clip0_46_573)">
<path d="M30.0017 53.106C19.1177 53.106 10.2617 44.25 10.2617 33.366C10.2617 22.482 19.1177 13.626 30.0017 13.626C40.8857 13.626 49.7417 22.482 49.7417 33.366C49.7417 44.25 40.8857 53.106 30.0017 53.106ZM30.0017 17.328C21.1577 17.328 13.9637 24.522 13.9637 33.366C13.9637 42.21 21.1577 49.404 30.0017 49.404C38.8457 49.404 46.0397 42.21 46.0397 33.366C46.0397 24.522 38.8457 17.328 30.0017 17.328Z" fill="#006DB7"/>
<path d="M38.779 10.5959H21.223C20.203 10.5959 19.375 9.7679 19.375 8.7479C19.375 7.7279 20.203 6.8999 21.223 6.8999H38.779C39.799 6.8999 40.627 7.7279 40.627 8.7479C40.627 9.7679 39.799 10.5959 38.779 10.5959Z" fill="#006DB7"/>
<path d="M42.3744 22.3078C41.8824 22.3078 41.3964 22.1158 41.0304 21.7318C40.3284 20.9938 40.3584 19.8178 41.1024 19.1158L45.2304 15.1978C45.9744 14.4958 47.1444 14.5258 47.8464 15.2698C48.5484 16.0078 48.5184 17.1838 47.7744 17.8858L43.6464 21.8038C43.2924 22.1398 42.8304 22.3078 42.3744 22.3078Z" fill="#006DB7"/>
<path d="M30.0003 33.5039C28.9803 33.5039 28.1523 32.6759 28.1523 31.6559V24.5699C28.1523 23.5499 28.9803 22.7219 30.0003 22.7219C31.0203 22.7219 31.8483 23.5499 31.8483 24.5699V31.6559C31.8483 32.6759 31.0203 33.5039 30.0003 33.5039Z" fill="#006DB7"/>
<path d="M30.0009 38.442C32.2774 38.442 34.1229 36.5965 34.1229 34.32C34.1229 32.0435 32.2774 30.198 30.0009 30.198C27.7244 30.198 25.8789 32.0435 25.8789 34.32C25.8789 36.5965 27.7244 38.442 30.0009 38.442Z" fill="#006DB7"/>
</g>
<defs>
<clipPath id="clip0_46_573">
<rect width="60" height="60" fill="white"/>
</clipPath>
</defs>
</svg>
