<svg width="60" height="60" viewBox="0 0 60 60" fill="none" xmlns="http://www.w3.org/2000/svg">
<g clip-path="url(#clip0_46_574)">
<path d="M40.6722 20.142C39.6522 20.142 38.8242 19.314 38.8242 18.294V17.37C38.8242 16.35 39.6522 15.522 40.6722 15.522C41.6922 15.522 42.5202 16.35 42.5202 17.37V18.294C42.5202 19.314 41.6922 20.142 40.6722 20.142Z" fill="#006DB7"/>
<path d="M40.6722 36.6719C39.6522 36.6719 38.8242 35.8439 38.8242 34.8239V33.4439C38.8242 32.4239 39.6522 31.5959 40.6722 31.5959C41.6922 31.5959 42.5202 32.4239 42.5202 33.4439V34.8239C42.5202 35.8439 41.6922 36.6719 40.6722 36.6719ZM40.6722 28.4039C39.6522 28.4039 38.8242 27.5759 38.8242 26.5559V25.1759C38.8242 24.1559 39.6522 23.3279 40.6722 23.3279C41.6922 23.3279 42.5202 24.1559 42.5202 25.1759V26.5559C42.5202 27.5759 41.6922 28.4039 40.6722 28.4039Z" fill="#006DB7"/>
<path d="M40.6722 44.484C39.6522 44.484 38.8242 43.656 38.8242 42.636V41.712C38.8242 40.692 39.6522 39.864 40.6722 39.864C41.6922 39.864 42.5202 40.692 42.5202 41.712V42.636C42.5202 43.656 41.6922 44.484 40.6722 44.484Z" fill="#006DB7"/>
<path d="M51.618 50.3461H8.382C5.004 50.3461 2.25 47.5981 2.25 44.2141V37.1281C2.25 35.4901 3.402 34.0441 5.046 33.6181C6.69 33.1921 7.836 31.7041 7.836 30.0061C7.836 28.3081 6.69 26.8201 5.046 26.3941C3.402 25.9681 2.25 24.5221 2.25 22.8841V15.7801C2.25 12.4021 4.998 9.65405 8.376 9.65405H51.612C54.99 9.65405 57.738 12.4021 57.738 15.7801V22.8721C57.738 24.5101 56.586 25.9561 54.942 26.3821C53.298 26.8081 52.152 28.2961 52.152 29.9941C52.152 31.6921 53.298 33.1801 54.942 33.6061C56.586 34.0321 57.738 35.4781 57.738 37.1161V44.2201C57.75 47.5981 54.996 50.3461 51.618 50.3461ZM8.382 13.3501C7.044 13.3501 5.952 14.4421 5.952 15.7801V22.8721C9.252 23.6581 11.538 26.6161 11.538 30.0001C11.538 33.3841 9.252 36.3421 5.982 37.1941L5.952 44.2201C5.952 45.5581 7.044 46.6501 8.382 46.6501H51.618C52.956 46.6501 54.048 45.5581 54.048 44.2201V37.1281C50.748 36.3421 48.462 33.3841 48.462 30.0001C48.462 26.6161 50.748 23.6581 54.018 22.8061L54.048 15.7801C54.048 14.4421 52.956 13.3501 51.618 13.3501H8.382Z" fill="#006DB7"/>
<path d="M27.3133 37.674C26.8993 37.674 26.4853 37.566 26.1073 37.344L24.0434 36.132L22.0093 37.344C21.1933 37.824 20.2093 37.782 19.4353 37.236C18.6493 36.678 18.2593 35.694 18.4453 34.734L18.9133 32.31L17.1493 30.564C16.4473 29.892 16.2073 28.902 16.5133 27.978C16.8133 27.072 17.5813 26.442 18.5113 26.328L20.8693 26.046L21.8593 23.784C22.2493 22.89 23.0953 22.332 24.0553 22.332C25.0153 22.332 25.8613 22.89 26.2573 23.784L27.2413 26.034L29.5993 26.334C30.5353 26.448 31.2973 27.078 31.6033 27.984C31.9093 28.914 31.6693 29.904 30.9673 30.57L29.2213 32.244L29.6774 34.746C29.8633 35.706 29.4733 36.69 28.6873 37.248C28.2673 37.53 27.7933 37.674 27.3133 37.674ZM24.0553 33.732C24.4693 33.732 24.8893 33.84 25.2613 34.062L27.3253 35.274L26.8393 32.772C26.6773 31.932 26.9413 31.08 27.5533 30.498L29.2993 28.824L26.9533 28.428C26.1133 28.326 25.3753 27.774 25.0333 26.988L24.0493 24.744C24.0433 24.726 24.0373 24.72 24.0373 24.72L23.0713 26.994C22.7233 27.78 21.9913 28.332 21.1513 28.434L18.7933 28.716L20.5513 30.498C21.1633 31.086 21.4273 31.932 21.2653 32.772L20.7973 35.196L22.8493 34.062C23.2213 33.84 23.6413 33.732 24.0553 33.732Z" fill="#006DB7"/>
</g>
<defs>
<clipPath id="clip0_46_574">
<rect width="60" height="60" fill="white"/>
</clipPath>
</defs>
</svg>
