<svg width="81" height="80" viewBox="0 0 81 80" fill="none" xmlns="http://www.w3.org/2000/svg">
<path d="M71.9023 39.9688L69.8867 64.5469C69.3711 70.9063 59.9023 70.0313 60.418 63.7813L61.9805 44.6406L55.5586 45C57.1367 48.2344 58.0273 51.8594 58.0273 55.7031C58.0273 62.1406 55.5117 68 51.418 72.3438L45.2773 66.2031C54.3242 56.25 47.3242 40.0781 33.7148 40.0781C29.668 40.0781 25.9805 41.625 23.2148 44.1406L17.0742 38C20.5117 34.7656 24.9023 32.5156 29.793 31.7188L41.5586 18.3281L34.9023 14.4531L26.8398 21.6406C22.1523 25.8281 15.8086 18.75 20.5117 14.5469L31.1367 5.0625C32.668 3.6875 34.9023 3.46875 36.6836 4.5C36.6836 4.5 58.4492 17.1406 58.4805 17.1719C61.0117 18.75 61.7148 22.7969 59.4336 25.3906L50.3086 35.7813L66.8867 34.8594C69.7773 34.6875 72.1367 37.1094 71.9023 39.9688ZM61.7617 15.9063C66.1523 15.9063 69.7148 12.3438 69.7148 7.95313C69.7148 3.5625 66.1523 0 61.7617 0C57.3711 0 53.8086 3.5625 53.8086 7.95313C53.8086 12.3438 57.3711 15.9063 61.7617 15.9063Z" fill="#A9A9A9"/>
<path d="M33.9805 70.5938C21.3867 70.5938 14.0742 56.4375 21.0586 46.2031L14.8555 40C11.6055 44.1094 9.66797 49.3125 9.66797 54.9531C9.66797 75.375 33.2148 86.4219 48.9492 74.0938L42.7461 67.8906C40.2461 69.5938 37.2305 70.5938 33.9805 70.5938Z" fill="#D01012"/>
</svg>
