<svg width="80" height="80" viewBox="0 0 80 80" fill="none" xmlns="http://www.w3.org/2000/svg">
<g clip-path="url(#clip0_36_374)">
<path d="M2.79444 34.4375C1.96969 34.7673 1.26268 35.3368 0.764597 36.0722C0.266512 36.8077 0.000197529 37.6756 0 38.5639L0 73.3305C0 74.9027 1.5875 75.9777 3.04722 75.3944L22.2222 66.6666V34.2944C20.9944 32.075 19.9903 29.9139 19.2708 27.8472L2.79444 34.4375ZM40 54.3986C38.0458 54.3986 36.1972 53.5402 34.9292 52.043C32.1986 48.8208 29.2944 45.1514 26.6667 41.3875V66.6652L53.3333 75.5541V41.3889C50.7056 45.1514 45.0708 52.0444 45.0708 52.0444C43.8028 53.5402 41.9542 54.3986 40 54.3986ZM76.9528 26.8277L57.7778 35.5555V75.5555L77.2056 67.7847C78.0304 67.455 78.7375 66.8856 79.2356 66.1501C79.7338 65.4146 80 64.5466 80 63.6583V28.8916C80 27.3194 78.4125 26.2444 76.9528 26.8277Z" fill="#A9A9A9"/>
<path d="M39.8984 4C30.2332 4 22.3984 11.8347 22.3984 21.5C22.3984 29.3139 33.8359 43.5556 38.2179 48.725C39.1054 49.7722 40.6929 49.7722 41.579 48.725C45.9609 43.5556 57.3984 29.3139 57.3984 21.5C57.3984 11.8347 49.5637 4 39.8984 4ZM39.8984 27.3333C36.6762 27.3333 34.0651 24.7222 34.0651 21.5C34.0651 18.2778 36.6762 15.6667 39.8984 15.6667C43.1207 15.6667 45.7318 18.2778 45.7318 21.5C45.7318 24.7222 43.1207 27.3333 39.8984 27.3333Z" fill="#D01012"/>
</g>
<defs>
<clipPath id="clip0_36_374">
<rect width="80" height="80" fill="white"/>
</clipPath>
</defs>
</svg>
