<svg width="80" height="80" viewBox="0 0 80 80" fill="none" xmlns="http://www.w3.org/2000/svg">
<g clip-path="url(#clip0_46_658)">
<path d="M2.79444 34.4376C1.96969 34.7675 1.26268 35.3369 0.764597 36.0724C0.266512 36.8079 0.000197529 37.6757 0 38.564L0 73.3306C0 74.9029 1.5875 75.9779 3.04722 75.3945L22.2222 66.6668V34.2945C20.9944 32.0751 19.9903 29.914 19.2708 27.8473L2.79444 34.4376ZM40 54.3987C38.0458 54.3987 36.1972 53.5404 34.9292 52.0431C32.1986 48.8209 29.2944 45.1515 26.6667 41.3876V66.6654L53.3333 75.5543V41.389C50.7056 45.1515 45.0708 52.0445 45.0708 52.0445C43.8028 53.5404 41.9542 54.3987 40 54.3987ZM76.9528 26.8279L57.7778 35.5556V75.5556L77.2056 67.7848C78.0304 67.4551 78.7375 66.8857 79.2356 66.1502C79.7338 65.4147 80 64.5467 80 63.6584V28.8918C80 27.3195 78.4125 26.2445 76.9528 26.8279Z" fill="#FFCF00"/>
<path d="M39.8984 4C30.2332 4 22.3984 11.8347 22.3984 21.5C22.3984 29.3139 33.8359 43.5556 38.2179 48.725C39.1054 49.7722 40.6929 49.7722 41.579 48.725C45.9609 43.5556 57.3984 29.3139 57.3984 21.5C57.3984 11.8347 49.5637 4 39.8984 4ZM39.8984 27.3333C36.6762 27.3333 34.0651 24.7222 34.0651 21.5C34.0651 18.2778 36.6762 15.6667 39.8984 15.6667C43.1207 15.6667 45.7318 18.2778 45.7318 21.5C45.7318 24.7222 43.1207 27.3333 39.8984 27.3333Z" fill="#D01012"/>
</g>
<defs>
<clipPath id="clip0_46_658">
<rect width="80" height="80" fill="white"/>
</clipPath>
</defs>
</svg>
