<svg width="80" height="80" viewBox="0 0 80 80" fill="none" xmlns="http://www.w3.org/2000/svg">
<g clip-path="url(#clip0_36_392)">
<path d="M76.6667 8H12.2222C10.3813 8 8.88889 9.76285 8.88889 11.9375V13.25H3.33333C1.49236 13.25 0 15.0129 0 17.1875V61.8125C0 66.8866 3.48222 71 7.77778 71H73.3333C77.0153 71 80 67.4743 80 63.125V11.9375C80 9.76285 78.5076 8 76.6667 8ZM7.77778 63.125C7.48309 63.125 7.20048 62.9867 6.9921 62.7406C6.78373 62.4944 6.66667 62.1606 6.66667 61.8125V21.125H8.88889V61.8125C8.88889 62.1606 8.77183 62.4944 8.56345 62.7406C8.35508 62.9867 8.07246 63.125 7.77778 63.125ZM40.5556 60.5H19.4444C18.524 60.5 17.7778 59.6185 17.7778 58.5312V57.2188C17.7778 56.1315 18.524 55.25 19.4444 55.25H40.5556C41.476 55.25 42.2222 56.1315 42.2222 57.2188V58.5312C42.2222 59.6185 41.476 60.5 40.5556 60.5ZM69.4445 60.5H48.3333C47.4129 60.5 46.6667 59.6185 46.6667 58.5312V57.2188C46.6667 56.1315 47.4129 55.25 48.3333 55.25H69.4445C70.3649 55.25 71.1111 56.1315 71.1111 57.2188V58.5312C71.1111 59.6185 70.3649 60.5 69.4445 60.5ZM40.5556 44.75H19.4444C18.524 44.75 17.7778 43.8685 17.7778 42.7812V41.4688C17.7778 40.3815 18.524 39.5 19.4444 39.5H40.5556C41.476 39.5 42.2222 40.3815 42.2222 41.4688V42.7812C42.2222 43.8685 41.476 44.75 40.5556 44.75ZM69.4445 44.75H48.3333C47.4129 44.75 46.6667 43.8685 46.6667 42.7812V41.4688C46.6667 40.3815 47.4129 39.5 48.3333 39.5H69.4445C70.3649 39.5 71.1111 40.3815 71.1111 41.4688V42.7812C71.1111 43.8685 70.3649 44.75 69.4445 44.75ZM69.4445 29H19.4444C18.524 29 17.7778 28.1185 17.7778 27.0313V20.4688C17.7778 19.3815 18.524 18.5 19.4444 18.5H69.4445C70.3649 18.5 71.1111 19.3815 71.1111 20.4688V27.0313C71.1111 28.1185 70.3649 29 69.4445 29Z" fill="#A9A9A9"/>
<path d="M57.5 36V8.8125C57.5 7.25918 58.3395 6 59.375 6H70.625C71.6605 6 72.5 7.25918 72.5 8.8125V36L65 29.4375L57.5 36Z" fill="#D01012"/>
</g>
<defs>
<clipPath id="clip0_36_392">
<rect width="80" height="80" fill="white"/>
</clipPath>
</defs>
</svg>
