<svg width="81" height="80" viewBox="0 0 81 80" fill="none" xmlns="http://www.w3.org/2000/svg">
<path d="M21.4732 53.7969C20.4576 51.5781 20.3951 50.9375 22.6295 50.1875C26.6295 48.9375 23.8795 51.625 29.3795 57.875H29.4264V43.2031C29.6139 35.3594 36.3014 28.7969 44.692 28.7969C53.1139 28.7969 59.9576 35.5938 59.9576 43.9219C59.9576 53.8281 50.4576 61.6094 39.8795 58.5C38.2389 57.8438 39.5514 53.5469 41.2076 54.0312C49.4889 54.0312 55.1764 52.4531 55.1764 43.9688C55.1764 34.4375 43.1295 29.9688 36.9107 37C33.2389 41.125 34.1607 43.5781 34.1607 61.625C42.0826 66.4688 52.6451 65.0625 59.2232 58.4844C63.0982 54.6094 65.2389 49.4219 65.2389 43.9531C65.2389 38.4531 63.0826 33.2969 59.1764 29.375C55.3014 25.5 50.1451 23.3594 44.5982 23.3594C39.0514 23.3594 33.8482 25.5156 29.9889 29.375C29.942 29.4219 27.4889 31.9531 26.6764 33.1094L26.5982 33.2031C26.0826 33.9375 25.6139 34.625 23.4576 34.1562C22.3795 33.8906 21.2232 33.25 21.2232 32.3125V3.125C21.2232 2.34375 21.8326 1.48438 22.8639 1.48438H60.567C61.8639 1.48438 61.8639 3.29688 61.8639 3.84375C61.8639 4.45312 61.8639 6.20312 60.567 6.20312H25.692V26.9688H25.7389C42.0201 9.8125 69.9264 21.3438 69.9264 43.9844C69.9264 71.8125 31.6764 78.4062 21.4732 53.7969ZM31.3639 13.0469C31.2857 13.7031 32.0826 16.875 33.6451 16.2656C53.1451 8.84375 65.3326 22.5781 66.3639 22.5781C67.1139 22.5781 69.9264 20.1875 68.5982 19.0156C54.0357 5.10938 31.9576 10.1094 31.3639 13.0469ZM66.7389 64.7969C49.5514 81.9688 20.0201 74.2969 14.8639 48.5156C14.8639 46.6094 10.1139 47.3594 10.3482 49.0312C14.0982 76.125 48.7857 89.1719 69.9732 67.9844C71.0514 66.7656 68.0045 63.5469 66.7389 64.7969Z" fill="#A9A9A9"/>
<path d="M38.332 47.0781C38.332 47.7031 39.0039 48.2188 39.1914 48.4062C39.6602 48.875 40.1445 49.0938 40.5195 49.0938C41.1133 49.0938 40.9258 49.125 44.0039 46.0469C47.0664 49.0625 46.9883 49.0938 47.4883 49.0938C48.332 49.0938 50.3789 47.4688 49.1602 46.25L46.457 43.5469L49.3008 40.7031C50.2852 39.6406 47.7227 37.2969 46.7695 38.25L43.9727 41.0469C41.0664 38.1094 41.0977 38 40.6133 38C39.832 38 37.8008 39.8281 38.6758 40.7031L41.5195 43.5469C38.6914 46.3438 38.332 46.5469 38.332 47.0781Z" fill="#D01012"/>
</svg>
