<svg width="155" height="45" viewBox="0 0 155 45" fill="none" xmlns="http://www.w3.org/2000/svg">
<path d="M23.293 12.7891H26.2227L29.5742 23.9453C30.1836 26.1797 30.5664 27.6094 30.7227 28.2344H30.8164C30.957 27.7188 31.1523 27.0078 31.4023 26.1016C31.6523 25.1797 31.8477 24.4609 31.9883 23.9453L35.3398 12.7891H38.293L32.3164 31H29.2461L23.293 12.7891ZM40.4492 31V12.7891H43.1211V31H40.4492ZM45.582 12.7891H48.4414L50.5508 23.5469C50.7695 24.7656 51.0117 26.2734 51.2773 28.0703H51.3945C51.6445 26.6953 51.9336 25.1875 52.2617 23.5469L54.6523 12.7891H57.418L59.832 23.5469C60.1602 25.125 60.4492 26.6328 60.6992 28.0703H60.8164C60.8789 27.7109 60.9961 26.9922 61.168 25.9141C61.3555 24.8359 61.4883 24.0469 61.5664 23.5469L63.6523 12.7891H66.5117L62.3633 31H59.2695L56.9023 20.3828C56.4492 18.0859 56.1836 16.6562 56.1055 16.0938H55.9883C55.9102 16.6406 55.7617 17.4453 55.543 18.5078C55.3242 19.5703 55.1992 20.1953 55.168 20.3828L52.8242 31H49.7539L45.582 12.7891ZM68.9727 31V12.7891H80.7383V15.0859H71.6445V20.4531H79.8477V22.7031H71.6445V28.7031H80.9492V31H68.9727ZM92.7383 24.0859H98.6445L96.9102 18.9297C96.8164 18.6484 96.6289 18.0859 96.3477 17.2422C96.082 16.3828 95.8867 15.75 95.7617 15.3438H95.6211C95.4336 15.9531 95.0586 17.1484 94.4961 18.9297L92.7383 24.0859ZM87.5352 31L94.1914 12.7891H97.2148L103.871 31H100.988L99.3711 26.2422H92.0352L90.418 31H87.5352ZM105.957 31V12.7891H108.629V28.7031H117.02V31H105.957ZM119.434 31V12.7891H122.105V28.7031H130.496V31H119.434Z" fill="#D01012"/>
<rect x="1.5" y="1.5" width="152" height="42" rx="21" stroke="#D01012" stroke-width="3"/>
</svg>
