<?xml version="1.0" encoding="utf-8"?>
<!-- Generator: Adobe Illustrator 26.3.1, SVG Export Plug-In . SVG Version: 6.00 Build 0)  -->
<svg version="1.1" id="Layer_1" xmlns="http://www.w3.org/2000/svg" xmlns:xlink="http://www.w3.org/1999/xlink" x="0px" y="0px"
	 viewBox="0 0 1200 100" style="enable-background:new 0 0 1200 100;" xml:space="preserve">
<style type="text/css">
	.st0{fill:#B5B5B6;}
	.st1{fill:#F7F8F8;}
	.st2{fill:#EFEFEF;}
	.st3{fill:none;stroke:#EFEFEF;stroke-width:0.8;stroke-miterlimit:10;}
</style>
<g>
	<g>
		<polygon class="st0" points="14.25,95.1 1.97,89.9 1197.96,89.9 1185.23,95.1 		"/>
		<path class="st0" d="M1195.92,90.3l-10.77,4.39H14.33L3.94,90.3H1195.92 M1200,89.5H0l14.16,5.99h1171.15L1200,89.5L1200,89.5z"/>
	</g>
	<g>
		<rect x="0.4" y="4.9" class="st1" width="1199.2" height="84.2"/>
		<path class="st2" d="M1199.2,5.3v83.4H0.8V5.3H1199.2 M1200,4.5H0v85h1200V4.5L1200,4.5z"/>
	</g>
	<line class="st3" x1="0" y1="47" x2="1200" y2="47"/>
	<line class="st3" x1="279.95" y1="4.5" x2="279.95" y2="47"/>
	<line class="st3" x1="152.83" y1="4.5" x2="152.83" y2="47"/>
	<line class="st3" x1="372.63" y1="4.5" x2="372.63" y2="47"/>
	<line class="st3" x1="671.36" y1="4.5" x2="671.36" y2="47"/>
	<line class="st3" x1="570.19" y1="4.5" x2="570.19" y2="47"/>
	<line class="st3" x1="930.25" y1="4.5" x2="930.25" y2="47"/>
	<line class="st3" x1="844.84" y1="4.5" x2="844.84" y2="47"/>
	<line class="st3" x1="1181.48" y1="4.5" x2="1181.48" y2="47"/>
	<line class="st3" x1="400.97" y1="47.62" x2="400.97" y2="89.5"/>
	<line class="st3" x1="656.8" y1="47.62" x2="656.8" y2="89.5"/>
	<line class="st3" x1="906.5" y1="47.62" x2="906.5" y2="89.5"/>
	<line class="st3" x1="1161.57" y1="47.62" x2="1161.57" y2="89.5"/>
	<line class="st3" x1="305.23" y1="48.22" x2="305.23" y2="88.9"/>
	<line class="st3" x1="197.26" y1="48.22" x2="197.26" y2="88.9"/>
	<line class="st3" x1="492.5" y1="4.5" x2="492.5" y2="47"/>
	<line class="st3" x1="536.93" y1="48.22" x2="536.93" y2="88.9"/>
	<line class="st3" x1="759.44" y1="4.5" x2="759.44" y2="47"/>
	<line class="st3" x1="803.87" y1="48.22" x2="803.87" y2="88.9"/>
	<line class="st3" x1="717.34" y1="48.22" x2="717.34" y2="88.9"/>
	<line class="st3" x1="1002.95" y1="4.5" x2="1002.95" y2="47"/>
	<line class="st3" x1="1103.29" y1="4.5" x2="1103.29" y2="47"/>
	<line class="st3" x1="1047.38" y1="48.22" x2="1047.38" y2="88.9"/>
</g>
<g>
</g>
<g>
</g>
<g>
</g>
<g>
</g>
<g>
</g>
<g>
</g>
</svg>
