<svg width="50" height="50" viewBox="0 0 50 50" fill="none" xmlns="http://www.w3.org/2000/svg">
<g clip-path="url(#clip0_28_387)">
<path d="M25.0006 49.3718C11.5622 49.3718 0.628906 38.4384 0.628906 25.0001C0.628906 11.5618 11.5622 0.628418 25.0006 0.628418C38.4389 0.628418 49.3722 11.5618 49.3722 25.0001C49.3722 38.4384 38.4389 49.3718 25.0006 49.3718ZM25.0006 2.31508C12.4922 2.31508 2.31557 12.4917 2.31557 25.0001C2.31557 37.5084 12.4922 47.6851 25.0006 47.6851C37.5089 47.6851 47.6856 37.5084 47.6856 25.0001C47.6856 12.4917 37.5089 2.31508 25.0006 2.31508Z" fill="#ACACAC"/>
<path d="M25.0164 7.97165H24.9814C24.4764 7.97165 24.0664 7.56165 24.0664 7.05665V5.44332C24.0664 4.93832 24.4764 4.52832 24.9814 4.52832H25.0164C25.5214 4.52832 25.9314 4.93832 25.9314 5.44332V7.05665C25.9314 7.56165 25.5214 7.97165 25.0164 7.97165Z" fill="#ACACAC"/>
<path d="M16.4874 10.2534C16.0407 10.5117 15.4707 10.3584 15.2124 9.91171L14.4224 8.54504C14.1641 8.09838 14.3174 7.52838 14.7641 7.27004C15.2107 7.01171 15.7807 7.16504 16.0391 7.61171L16.8291 8.97838C17.0857 9.42504 16.9324 9.99671 16.4874 10.2534Z" fill="#ACACAC"/>
<path d="M10.2526 16.4866C9.9943 16.9333 9.4243 17.085 8.97764 16.8283L7.61097 16.0383C7.1643 15.78 7.01264 15.21 7.2693 14.7633C7.52764 14.3166 8.09764 14.165 8.5443 14.4216L9.91097 15.2116C10.3576 15.47 10.511 16.04 10.2526 16.4866Z" fill="#ACACAC"/>
<path d="M7.97234 25C7.97234 25.515 7.55401 25.9333 7.03901 25.9333H5.46068C4.94568 25.9333 4.52734 25.515 4.52734 25C4.52734 24.485 4.94568 24.0667 5.46068 24.0667H7.03901C7.55568 24.0667 7.97234 24.485 7.97234 25Z" fill="#ACACAC"/>
<path d="M10.2534 33.5134C10.5117 33.9601 10.3584 34.5301 9.91171 34.7884L8.54504 35.5784C8.09838 35.8368 7.52838 35.6834 7.27004 35.2368C7.01171 34.7901 7.16504 34.2201 7.61171 33.9618L8.97838 33.1718C9.42504 32.9151 9.99671 33.0684 10.2534 33.5134Z" fill="#ACACAC"/>
<path d="M16.4866 39.7466C16.9333 40.0049 17.085 40.5749 16.8283 41.0216L16.0383 42.3883C15.78 42.8349 15.21 42.9866 14.7633 42.7299C14.3166 42.4716 14.165 41.9016 14.4216 41.4549L15.2116 40.0883C15.47 39.6416 16.04 39.4883 16.4866 39.7466Z" fill="#ACACAC"/>
<path d="M24.9997 42.0283C25.5147 42.0283 25.9331 42.4467 25.9331 42.9617V44.54C25.9331 45.055 25.5147 45.4733 24.9997 45.4733C24.4847 45.4733 24.0664 45.055 24.0664 44.54V42.9617C24.0664 42.445 24.4847 42.0283 24.9997 42.0283Z" fill="#ACACAC"/>
<path d="M33.5129 39.7466C33.9596 39.4883 34.5296 39.6416 34.7879 40.0883L35.5779 41.4549C35.8363 41.9016 35.6829 42.4716 35.2363 42.7299C34.7896 42.9883 34.2196 42.8349 33.9613 42.3883L33.1713 41.0216C32.9146 40.5749 33.0679 40.0033 33.5129 39.7466Z" fill="#ACACAC"/>
<path d="M39.7466 33.5133C40.0049 33.0666 40.5749 32.915 41.0216 33.1716L42.3883 33.9616C42.8349 34.22 42.9866 34.79 42.7299 35.2366C42.4716 35.6833 41.9016 35.835 41.4549 35.5783L40.0883 34.7883C39.6416 34.53 39.4883 33.96 39.7466 33.5133Z" fill="#ACACAC"/>
<path d="M42.0273 25C42.0273 24.485 42.4457 24.0667 42.9607 24.0667H44.539C45.054 24.0667 45.4723 24.485 45.4723 25C45.4723 25.515 45.054 25.9333 44.539 25.9333H42.9607C42.444 25.9333 42.0273 25.515 42.0273 25Z" fill="#ACACAC"/>
<path d="M39.7466 16.4867C39.4883 16.04 39.6416 15.47 40.0883 15.2117L41.4549 14.4217C41.9016 14.1633 42.4716 14.3167 42.7299 14.7633C42.9883 15.21 42.8349 15.78 42.3883 16.0383L41.0216 16.8283C40.5749 17.085 40.0033 16.9317 39.7466 16.4867Z" fill="#ACACAC"/>
<path d="M33.5133 10.2534C33.0666 9.99503 32.915 9.42503 33.1716 8.97837L33.9616 7.6117C34.22 7.16503 34.79 7.01337 35.2366 7.27003C35.6833 7.52837 35.835 8.09837 35.5783 8.54503L34.7883 9.9117C34.53 10.3584 33.96 10.5117 33.5133 10.2534Z" fill="#ACACAC"/>
<path d="M25.0009 9.32324C16.3426 9.32324 9.32422 16.3416 9.32422 24.9999C9.32422 33.6582 16.3426 40.6766 25.0009 40.6766C33.6592 40.6766 40.6776 33.6582 40.6776 24.9999C40.6776 16.3416 33.6592 9.32324 25.0009 9.32324ZM32.4242 26.6149H26.6109V27.4549C26.6109 28.3466 25.8876 29.0699 24.9959 29.0699C24.1042 29.0699 23.3809 28.3466 23.3809 27.4549V26.6149H22.3409C21.4492 26.6149 20.7259 25.8916 20.7259 24.9999C20.7259 24.1082 21.4492 23.3849 22.3409 23.3849H23.3809V13.5332C23.3809 12.6416 24.1042 11.9182 24.9959 11.9182C25.8876 11.9182 26.6109 12.6416 26.6109 13.5332V23.3849H32.4242C33.3159 23.3849 34.0392 24.1082 34.0392 24.9999C34.0392 25.8916 33.3159 26.6149 32.4242 26.6149Z" fill="#ACACAC"/>
</g>
<defs>
<clipPath id="clip0_28_387">
<rect width="50" height="50" fill="white"/>
</clipPath>
</defs>
</svg>
